<svg width="1684" height="868" viewBox="0 0 1684 868" fill="none" xmlns="http://www.w3.org/2000/svg">
<g style="mix-blend-mode:luminosity">
<path d="M1282.38 -148.217C1067.73 104.589 1077.11 -282.689 740.227 -200.592C663.034 -181.765 577.251 -95.5635 507.243 14.3643C430.71 134.555 337.241 236.193 231.099 316.451C73.6547 435.504 -106.561 642.522 51.8074 899.992" stroke="#3D0C77" stroke-miterlimit="10"/>
<path d="M44.6796 882.529C-108.171 622.225 74.2399 422.861 235.007 309.644C306.721 258.677 372.895 198.589 432.251 130.104C462.11 95.6682 490.263 59.2144 516.443 20.5071C587.867 -85.6455 673.707 -170.449 752.019 -191.04C772.055 -196.316 790.942 -199.907 808.778 -202.048C1083.34 -235.034 1091.09 74.8548 1291.25 -158.113" stroke="#441077" stroke-miterlimit="10"/>
<path d="M37.5722 865.065C-109.726 601.907 75.2185 410.953 238.941 302.771C311.781 254.665 378.884 197.153 439.329 131.869C469.904 98.8562 498.84 63.9468 525.648 26.6008C598.51 -75.8072 684.394 -159.116 763.842 -181.54C783.715 -187.163 802.511 -191.137 820.364 -193.637C1089.88 -231.448 1101.61 60.2063 1300.11 -168.101" stroke="#4C1478" stroke-miterlimit="10"/>
<path d="M30.4279 847.608C-111.335 581.578 75.9299 398.607 242.856 295.93C316.72 250.504 384.857 195.757 446.418 133.675C477.735 102.084 507.499 68.847 534.869 32.7717C609.421 -65.5864 695.099 -147.704 775.659 -171.964C795.373 -177.903 814.104 -182.264 831.943 -185.153C1096.38 -227.7 1112.12 45.5602 1308.99 -178.059" stroke="#531878" stroke-miterlimit="10"/>
<path d="M23.2747 830.154C-112.913 561.26 76.6174 386.255 246.75 289.09C321.635 246.315 390.837 194.366 453.488 135.493C485.549 105.327 516.081 73.7041 544.071 38.9282C620.136 -55.5226 705.793 -136.24 787.486 -162.376C807.042 -168.631 825.708 -173.38 843.537 -176.628C1102.9 -223.764 1122.64 30.945 1317.87 -188.05" stroke="#5B1D79" stroke-miterlimit="10"/>
<path d="M16.1439 812.701C-114.49 540.892 77.3376 373.893 250.709 282.279C326.59 242.163 396.913 193.044 460.6 137.356C493.434 108.646 524.701 78.578 553.315 45.135C630.858 -45.4977 716.53 -124.721 799.323 -152.801C818.719 -159.374 837.294 -164.51 855.134 -168.152C1109.4 -219.793 1133.15 16.2021 1326.72 -198.102" stroke="#622179" stroke-miterlimit="10"/>
<path d="M9.08789 795.253C-115.948 520.546 78.0773 361.529 254.704 275.485C331.575 238.037 403.045 191.789 467.76 139.268C501.361 111.988 533.369 83.5456 562.607 51.4417C641.63 -35.2912 727.307 -113.042 811.194 -143.068C830.429 -149.959 848.911 -155.483 866.765 -159.487C1115.92 -215.479 1143.71 1.60468 1335.58 -208.011" stroke="#6A257A" stroke-miterlimit="10"/>
<path d="M2.44401 777.808C-116.975 500.37 79.2129 349.365 259.087 269.04C336.929 234.284 409.526 190.936 475.226 141.617C509.591 115.815 542.298 88.9536 572.177 58.2055C652.63 -24.6063 738.322 -100.78 823.303 -132.776C842.402 -139.952 860.781 -145.892 878.615 -150.288C1122.58 -210.51 1154.37 -12.6132 1344.51 -217.393" stroke="#71297A" stroke-miterlimit="10"/>
<path d="M-4.22403 760.399C-118.001 480.189 80.3247 337.208 263.443 262.576C342.221 230.453 416.008 190.069 482.693 143.955C517.848 119.631 551.253 94.3529 581.748 64.9643C663.627 -13.954 749.339 -88.5168 835.388 -122.483C854.324 -129.942 872.605 -136.269 890.439 -141.09C1129.24 -205.389 1165.02 -26.8306 1353.43 -226.836" stroke="#792D7A" stroke-miterlimit="10"/>
<path d="M-10.8784 742.96C-119.036 459.972 81.399 324.993 267.799 256.124C347.518 226.669 422.494 189.252 490.13 146.284C526.075 123.44 560.158 99.7808 591.295 71.7508C674.606 -3.23788 760.341 -76.157 847.475 -112.163C866.249 -119.906 884.432 -126.619 902.271 -131.835C1135.91 -200.121 1175.66 -41.0531 1362.33 -236.215" stroke="#80317B" stroke-miterlimit="10"/>
<path d="M-17.5618 725.527C-120.069 439.751 82.4706 312.751 272.158 249.683C352.813 222.868 429.014 188.483 497.602 148.665C534.341 127.335 569.12 105.23 600.873 78.5626C685.612 7.47578 771.376 -63.7662 859.57 -101.813C878.181 -109.841 896.266 -116.941 914.13 -122.587C1142.62 -194.704 1186.33 -55.2815 1371.28 -245.63" stroke="#88367B" stroke-miterlimit="10"/>
<path d="M-24.2508 708.098C-121.105 419.525 83.5109 300.483 276.517 243.253C358.105 219.049 435.566 187.763 505.076 151.07C542.611 131.255 578.059 110.709 610.459 85.4347C696.601 18.2564 782.448 -51.2795 871.699 -91.4033C890.147 -99.7157 908.159 -107.206 925.998 -113.278C1149.35 -189.137 1197.01 -69.5146 1380.21 -255.011" stroke="#8F3A7C" stroke-miterlimit="10"/>
<path d="M-30.9197 690.67C-122.142 399.294 84.5458 288.188 280.877 236.837C363.398 215.247 442.094 187.066 512.525 153.501C550.886 135.234 586.97 116.186 620.017 92.3075C707.563 29.0425 793.476 -38.7188 883.774 -80.9878C902.09 -89.5556 919.977 -97.4323 937.817 -103.932C1156.05 -183.411 1207.64 -83.7133 1389.11 -264.421" stroke="#973E7C" stroke-miterlimit="10"/>
<path d="M-37.6194 673.248C-123.176 379.089 85.5758 275.865 285.238 230.433C368.662 211.431 448.654 186.419 520.003 155.954C559.191 139.236 595.915 121.721 629.631 99.2052C718.576 39.826 804.586 -26.1294 895.933 -70.5475C914.09 -79.369 931.878 -87.6349 949.713 -94.5969C1162.87 -177.575 1218.35 -97.9891 1398.1 -273.839" stroke="#9E427C" stroke-miterlimit="10"/>
<path d="M-44.2974 655.828C-124.188 358.845 86.6276 263.512 289.601 224.042C373.955 207.629 455.221 185.826 527.459 158.435C567.473 143.269 604.834 127.255 639.202 106.171C729.517 50.6523 815.654 -13.4654 908.023 -60.0345C926.022 -69.1103 943.737 -77.7684 961.546 -85.1585C1169.66 -171.516 1229.01 -112.168 1406.98 -283.184" stroke="#A5467D" stroke-miterlimit="10"/>
<path d="M-51.0049 638.415C-125.253 338.6 87.6197 251.106 293.961 217.634C379.245 203.814 461.791 185.257 534.939 160.91C575.759 147.332 613.782 132.82 648.794 113.105C740.51 61.4821 826.777 -0.763665 920.135 -49.5504C938 -58.8831 955.59 -67.9297 973.395 -75.7834C1176.5 -165.431 1239.67 -126.479 1415.91 -292.627" stroke="#AD4A7D" stroke-miterlimit="10"/>
<path d="M-57.7177 621.005C-126.289 318.38 88.6366 238.702 298.327 211.273C384.51 200.019 468.393 184.74 542.399 163.447C584.051 151.457 622.706 138.419 658.371 120.139C751.454 72.3549 837.891 12.0779 932.259 -38.9656C949.966 -48.5537 967.487 -57.9617 985.257 -66.3099C1183.39 -159.161 1250.33 -140.698 1424.82 -302.037" stroke="#B44E7E" stroke-miterlimit="10"/>
<path d="M-64.4081 603.598C-127.329 298.12 90.4312 231.254 302.694 204.926C389.497 194.168 474.977 184.282 549.885 165.976C592.373 155.61 631.657 144.016 667.971 127.14C762.451 83.231 849.028 24.8945 944.38 -28.4081C961.958 -38.222 979.354 -48.0201 997.12 -56.8336C1190.29 -152.798 1261 -154.987 1433.75 -311.449" stroke="#BC537E" stroke-miterlimit="10"/>
<path d="M-71.1297 586.198C-128.371 277.855 90.675 213.746 307.037 198.597C395.064 192.42 481.54 183.884 557.351 168.572C600.676 159.831 640.588 149.683 677.552 134.214C773.4 94.1546 860.155 37.856 956.51 -17.7778C973.953 -27.8506 991.259 -37.977 1008.99 -47.3195C1197.29 -146.281 1271.67 -169.248 1442.66 -320.858" stroke="#C3577F" stroke-miterlimit="10"/>
<path d="M-77.8334 568.8C-129.413 257.614 91.6966 201.225 311.429 192.277C400.379 188.645 488.159 183.537 564.842 171.193C609.005 164.081 649.542 155.349 687.163 141.354C784.376 105.117 871.365 50.8865 968.645 -7.07724C985.934 -17.3748 1003.17 -27.8975 1020.89 -37.7075C1204.33 -139.576 1282.37 -183.488 1451.63 -330.212" stroke="#CB5B7F" stroke-miterlimit="10"/>
<path d="M-84.5624 551.41C-130.455 237.335 92.7226 188.711 315.802 185.978C405.674 184.894 494.733 183.225 572.341 173.848C617.32 168.402 658.507 161.086 696.778 148.502C795.356 116.095 882.558 63.9694 980.81 3.63352C997.97 -6.89176 1015.11 -17.7769 1032.79 -28.118C1211.45 -132.843 1293.07 -197.764 1460.59 -339.627" stroke="#D25F7F" stroke-miterlimit="10"/>
<path d="M-91.27 534.021C-131.472 217.047 93.7652 176.136 320.174 179.697C410.965 181.135 501.069 180.789 579.814 176.54C625.787 174.064 667.418 166.835 706.37 155.694C806.338 127.121 893.757 77.1362 992.926 14.395C1009.96 3.6414 1027.03 -7.57675 1044.64 -18.4805C1218.56 -125.974 1303.74 -212.072 1469.47 -349.065" stroke="#DA6380" stroke-miterlimit="10"/>
<path d="M-98.0086 516.637C-132.543 196.752 94.8023 163.531 324.548 173.43C416.283 177.39 507.923 182.777 587.316 179.26C633.959 177.184 676.383 172.615 715.994 162.955C817.324 138.191 904.99 90.3803 1005.08 25.2275C1021.98 14.245 1038.96 2.69512 1056.53 -8.74224C1225.8 -118.953 1314.43 -226.295 1478.42 -358.415" stroke="#E16780" stroke-miterlimit="10"/>
<path d="M-104.746 499.252C-133.579 176.477 95.8441 150.929 328.9 167.181C421.576 173.638 514.462 182.615 594.771 182.018C642.236 181.65 685.303 178.439 725.568 170.23C828.285 149.28 916.207 103.712 1017.2 36.0772C1033.97 24.8651 1050.89 12.9805 1068.39 0.978053C1233.09 -111.866 1325.11 -240.587 1487.34 -367.825" stroke="#E96C81" stroke-miterlimit="10"/>
<path d="M-111.46 481.865C-134.618 156.158 96.9348 138.293 333.307 160.942C426.924 169.9 521.056 182.476 602.307 184.801C650.599 186.177 694.33 184.291 735.229 177.572C839.334 160.443 927.538 117.119 1029.39 46.9999C1046.03 35.5576 1062.88 23.3701 1080.31 10.7685C1240.44 -104.684 1335.8 -254.888 1496.28 -377.206" stroke="#F07081" stroke-miterlimit="10"/>
<path d="M-118.2 464.48C-135.654 135.827 97.9974 125.233 337.667 154.725C432.206 166.058 527.607 182.404 609.792 187.592C658.88 190.685 703.271 190.095 744.834 184.897C850.301 171.401 938.816 130.553 1041.55 57.9091C1058.06 46.2359 1074.88 33.7422 1092.21 20.5752C1247.88 -97.4364 1346.51 -269.197 1505.22 -386.618" stroke="#F87482" stroke-miterlimit="10"/>
<path d="M-124.916 447.092C-141.303 -14.8203 322.68 161.783 617.315 190.48C813.552 209.595 934.722 165.518 1104.14 30.4901C1255.38 -90.0578 1357.2 -283.513 1514.17 -396" stroke="#FF7882" stroke-miterlimit="10"/>
</g>
</svg>
