<svg width="1662" height="126" viewBox="0 0 1662 126" fill="none" xmlns="http://www.w3.org/2000/svg">
<g style="mix-blend-mode:luminosity" opacity="0.5">
<path d="M1509.38 -272.217C1294.73 -19.4114 1304.11 -406.689 967.227 -324.592C890.034 -305.765 804.251 -219.564 734.243 -109.636C657.71 10.5548 564.241 112.193 458.099 192.451C300.655 311.503 120.439 518.522 278.807 775.992" stroke="#3D0C77" stroke-miterlimit="10"/>
<path d="M271.68 758.529C118.829 498.225 301.24 298.861 462.007 185.644C533.721 134.677 599.895 74.5886 659.251 6.10415C689.11 -28.3318 717.263 -64.7857 743.443 -103.493C814.867 -209.646 900.707 -294.45 979.019 -315.04C999.055 -320.316 1017.94 -323.907 1035.78 -326.048C1310.34 -359.035 1318.09 -49.1453 1518.25 -282.114" stroke="#441077" stroke-miterlimit="10"/>
<path d="M264.572 741.065C117.274 477.907 302.219 286.952 465.941 178.77C538.781 130.665 605.884 73.1527 666.329 7.86878C696.904 -25.144 725.841 -60.0534 752.648 -97.3994C825.51 -199.807 911.394 -283.117 990.842 -305.54C1010.72 -311.163 1029.51 -315.138 1047.36 -317.637C1316.88 -355.448 1328.61 -63.7939 1527.12 -292.101" stroke="#4C1478" stroke-miterlimit="10"/>
<path d="M257.428 723.608C115.665 457.577 302.93 274.607 469.856 171.93C543.72 126.504 611.857 71.7564 673.418 9.67456C704.735 -21.9158 734.499 -55.1532 761.869 -91.2285C836.421 -189.587 922.099 -271.705 1002.66 -295.964C1022.37 -301.903 1041.1 -306.264 1058.94 -309.154C1323.38 -351.7 1339.12 -78.44 1535.99 -302.059" stroke="#531878" stroke-miterlimit="10"/>
<path d="M250.275 706.154C114.087 437.26 303.617 262.255 473.75 165.09C548.635 122.315 617.837 70.3662 680.488 11.4929C712.549 -18.6734 743.081 -50.2962 771.071 -85.0721C847.136 -179.523 932.793 -260.24 1014.49 -286.376C1034.04 -292.631 1052.71 -297.381 1070.54 -300.628C1329.9 -347.765 1349.64 -93.0553 1544.87 -312.05" stroke="#5B1D79" stroke-miterlimit="10"/>
<path d="M243.144 688.7C112.51 416.892 304.338 249.893 477.709 158.279C553.59 118.162 623.913 69.0436 687.6 13.3562C720.434 -15.3541 751.701 -45.422 780.315 -78.865C857.858 -169.498 943.53 -248.721 1026.32 -276.801C1045.72 -283.374 1064.29 -288.51 1082.13 -292.152C1336.4 -343.793 1360.15 -107.798 1553.72 -322.102" stroke="#622179" stroke-miterlimit="10"/>
<path d="M236.088 671.253C111.052 396.545 305.077 237.529 481.704 151.485C558.575 114.037 630.045 67.789 694.76 15.2681C728.361 -12.0124 760.369 -40.4546 789.607 -72.5584C868.63 -159.291 954.307 -237.042 1038.19 -267.069C1057.43 -273.959 1075.91 -279.483 1093.77 -283.487C1342.92 -339.479 1370.71 -122.395 1562.58 -332.011" stroke="#6A257A" stroke-miterlimit="10"/>
<path d="M229.444 653.807C110.025 376.369 306.213 225.365 486.087 145.04C563.929 110.284 636.526 66.936 702.226 17.6164C736.591 -8.18542 769.298 -35.0465 799.177 -65.7946C879.63 -148.606 965.322 -224.78 1050.3 -256.776C1069.4 -263.952 1087.78 -269.893 1105.61 -274.288C1349.58 -334.51 1381.37 -136.613 1571.51 -341.393" stroke="#71297A" stroke-miterlimit="10"/>
<path d="M222.776 636.399C108.999 356.189 307.325 213.208 490.443 138.576C569.221 106.453 643.008 66.0691 709.693 19.9546C744.848 -4.36919 778.253 -29.6473 808.748 -59.0359C890.627 -137.954 976.339 -212.517 1062.39 -246.483C1081.32 -253.942 1099.61 -260.269 1117.44 -265.09C1356.24 -329.389 1392.02 -150.831 1580.43 -350.836" stroke="#792D7A" stroke-miterlimit="10"/>
<path d="M216.122 618.959C107.964 335.972 308.399 200.993 494.799 132.123C574.518 102.669 649.494 65.2515 717.13 22.2836C753.075 -0.56054 787.158 -24.2195 818.295 -52.2495C901.606 -127.238 987.341 -200.157 1074.48 -236.163C1093.25 -243.906 1111.43 -250.619 1129.27 -255.835C1362.91 -324.121 1402.66 -165.053 1589.33 -360.215" stroke="#80317B" stroke-miterlimit="10"/>
<path d="M209.438 601.527C106.931 315.751 309.471 188.751 499.158 125.682C579.813 98.8675 656.014 64.4829 724.602 24.6653C761.341 3.33476 796.12 -18.7698 827.873 -45.4375C912.612 -116.524 998.376 -187.766 1086.57 -225.813C1105.18 -233.841 1123.27 -240.941 1141.13 -246.587C1369.62 -318.704 1413.33 -179.282 1598.28 -369.63" stroke="#88367B" stroke-miterlimit="10"/>
<path d="M202.749 584.098C105.895 295.525 310.511 176.483 503.517 119.253C585.105 95.0489 662.566 63.763 732.076 27.0696C769.611 7.25457 805.059 -13.2915 837.459 -38.5653C923.601 -105.744 1009.45 -175.279 1098.7 -215.403C1117.15 -223.716 1135.16 -231.206 1153 -237.278C1376.35 -313.137 1424.01 -193.515 1607.21 -379.011" stroke="#8F3A7C" stroke-miterlimit="10"/>
<path d="M196.08 566.669C104.858 275.293 311.546 164.188 507.877 112.837C590.398 91.2469 669.094 63.0661 739.525 29.5011C777.886 11.2335 813.97 -7.81442 847.017 -31.6927C934.563 -94.9576 1020.48 -162.719 1110.77 -204.988C1129.09 -213.556 1146.98 -221.432 1164.82 -227.933C1383.05 -307.411 1434.64 -207.713 1616.12 -388.421" stroke="#973E7C" stroke-miterlimit="10"/>
<path d="M189.381 549.248C103.825 255.09 312.576 151.865 512.238 106.433C595.663 87.4308 675.654 62.4194 747.004 31.9544C786.191 15.2362 822.916 -2.27923 856.632 -24.7949C945.577 -84.1741 1031.59 -150.13 1122.93 -194.548C1141.09 -203.369 1158.88 -211.635 1176.71 -218.597C1389.87 -301.575 1445.35 -221.989 1625.1 -397.839" stroke="#9E427C" stroke-miterlimit="10"/>
<path d="M182.703 531.827C102.812 234.844 313.628 139.512 516.601 100.042C600.955 83.6285 682.221 61.8256 754.459 34.4349C794.473 19.2683 831.834 3.25494 866.202 -17.8294C956.517 -73.348 1042.65 -137.466 1135.02 -184.035C1153.02 -193.11 1170.74 -201.769 1188.55 -209.159C1396.66 -295.516 1456.01 -236.169 1633.98 -407.184" stroke="#A5467D" stroke-miterlimit="10"/>
<path d="M175.995 514.414C101.747 214.6 314.62 127.106 520.961 93.6343C606.245 79.814 688.791 61.2566 761.939 36.91C802.759 23.3318 840.782 8.82042 875.794 -10.8954C967.51 -62.518 1053.78 -124.764 1147.13 -173.55C1165 -182.883 1182.59 -191.93 1200.4 -199.783C1403.5 -289.431 1466.67 -250.479 1642.91 -416.627" stroke="#AD4A7D" stroke-miterlimit="10"/>
<path d="M169.282 497.005C100.711 194.38 315.637 114.702 525.327 87.2728C611.51 76.0193 695.393 60.74 769.399 39.4465C811.051 27.4567 849.706 14.4194 885.371 -3.86132C978.454 -51.6451 1064.89 -111.922 1159.26 -162.966C1176.97 -172.554 1194.49 -181.962 1212.26 -190.31C1410.39 -283.161 1477.33 -264.698 1651.82 -426.037" stroke="#B44E7E" stroke-miterlimit="10"/>
<path d="M162.592 479.598C99.6712 174.12 317.431 107.254 529.694 80.9252C616.497 70.1678 701.977 60.2813 776.885 41.9762C819.373 31.6096 858.657 20.0161 894.971 3.14012C989.451 -40.7693 1076.03 -99.1057 1171.38 -152.408C1188.96 -162.222 1206.35 -172.02 1224.12 -180.834C1417.29 -276.798 1488 -278.987 1660.75 -435.449" stroke="#BC537E" stroke-miterlimit="10"/>
<path d="M155.87 462.198C98.6294 153.855 317.675 89.7462 534.037 74.5967C622.064 68.4195 708.54 59.8837 784.351 44.5716C827.676 35.8308 867.588 25.6833 904.552 10.2141C1000.4 -29.8455 1087.15 -86.1441 1183.51 -141.778C1200.95 -151.851 1218.26 -161.977 1235.99 -171.32C1424.29 -270.281 1498.67 -293.248 1669.66 -444.858" stroke="#C3577F" stroke-miterlimit="10"/>
<path d="M149.167 444.8C97.5875 133.614 318.697 77.2249 538.429 68.2773C627.379 64.6446 715.159 59.5375 791.842 47.1931C836.005 40.0807 876.542 31.349 914.163 17.3536C1011.38 -18.8828 1098.37 -73.1135 1195.65 -131.077C1212.93 -141.375 1230.17 -151.897 1247.89 -161.707C1431.33 -263.576 1509.37 -307.488 1678.63 -454.212" stroke="#CB5B7F" stroke-miterlimit="10"/>
<path d="M142.438 427.41C96.5453 113.335 319.723 64.7108 542.802 61.9781C632.674 60.8943 721.733 59.2245 799.341 49.8483C844.32 44.4018 885.507 37.0861 923.778 24.5018C1022.36 -7.90537 1109.56 -60.0307 1207.81 -120.367C1224.97 -130.892 1242.11 -141.777 1259.79 -152.118C1438.45 -256.843 1520.07 -321.764 1687.59 -463.627" stroke="#D25F7F" stroke-miterlimit="10"/>
<path d="M135.73 410.021C95.528 93.0472 320.765 52.1362 547.174 55.6972C637.965 57.1345 728.069 56.7888 806.814 52.5401C852.787 50.0638 894.418 42.8349 933.369 31.6943C1033.34 3.12065 1120.76 -46.8639 1219.93 -109.605C1236.96 -120.359 1254.03 -131.577 1271.64 -142.481C1445.56 -249.974 1530.74 -336.073 1696.47 -473.065" stroke="#DA6380" stroke-miterlimit="10"/>
<path d="M128.991 392.637C94.4571 72.7519 321.802 39.5304 551.548 49.4294C643.283 53.3902 734.923 58.7765 814.316 55.2594C860.959 53.1841 903.383 48.6145 942.994 38.955C1044.32 14.1909 1131.99 -33.6199 1232.08 -98.7727C1248.98 -109.755 1265.96 -121.305 1283.53 -132.742C1452.8 -242.953 1541.43 -350.295 1705.42 -482.415" stroke="#E16780" stroke-miterlimit="10"/>
<path d="M122.254 375.252C93.4212 52.4774 322.844 26.9294 555.9 43.181C648.576 49.6375 741.462 58.6153 821.771 58.0175C869.236 57.6499 912.303 54.4385 952.568 46.2301C1055.29 25.2802 1143.21 -20.2879 1244.2 -87.9229C1260.97 -99.135 1277.89 -111.02 1295.39 -123.022C1460.09 -235.866 1552.11 -364.587 1714.34 -491.825" stroke="#E96C81" stroke-miterlimit="10"/>
<path d="M115.54 357.864C92.382 32.1573 323.935 14.2925 560.307 36.9419C653.924 45.8993 748.056 58.4758 829.307 60.8006C877.599 62.1766 921.33 60.2912 962.228 53.5715C1066.33 36.4429 1154.54 -6.88155 1256.39 -77.0003C1273.03 -88.4426 1289.88 -100.63 1307.31 -113.232C1467.44 -228.684 1562.8 -378.888 1723.28 -501.206" stroke="#F07081" stroke-miterlimit="10"/>
<path d="M108.8 340.48C91.346 11.8269 324.997 1.23338 564.667 30.7252C659.206 42.0578 754.607 58.4038 836.792 63.5917C885.88 66.6845 930.271 66.0948 971.834 60.897C1077.3 47.401 1165.82 6.55264 1268.55 -66.091C1285.06 -77.7642 1301.88 -90.2579 1319.21 -103.425C1474.88 -221.437 1573.51 -393.197 1732.22 -510.619" stroke="#F87482" stroke-miterlimit="10"/>
<path d="M102.084 323.092C85.697 -138.82 549.68 37.7832 844.315 66.48C1040.55 85.5947 1161.72 41.5177 1331.14 -93.5099C1482.38 -214.058 1584.2 -407.513 1741.17 -520" stroke="#FF7882" stroke-miterlimit="10"/>
</g>
</svg>
