<svg width="1237" height="747" viewBox="0 0 1237 747" fill="none" xmlns="http://www.w3.org/2000/svg">
<line x1="14.7305" y1="166" x2="14.7304" y2="668" stroke="url(#paint0_linear)" stroke-dasharray="8 8"/>
<line x1="648.73" y1="2.18557e-08" x2="648.73" y2="502" stroke="url(#paint1_linear)" stroke-dasharray="8 8"/>
<line x1="331.73" y1="397" x2="331.73" y2="747" stroke="url(#paint2_linear)" stroke-dasharray="8 8"/>
<line x1="965.73" y1="230" x2="965.73" y2="580" stroke="url(#paint3_linear)" stroke-dasharray="8 8"/>
<mask id="mask0" mask-type="alpha" maskUnits="userSpaceOnUse" x="1202" y="126" width="35" height="33">
<path d="M1202.1 126H1236.44V158.854H1202.1V126Z" fill="white"/>
</mask>
<g mask="url(#mask0)">
<path fill-rule="evenodd" clip-rule="evenodd" d="M1221.57 157.804L1202.78 136.552C1201.76 135.395 1201.91 133.516 1203.07 132.504C1203.51 132.215 1203.94 131.926 1204.38 131.781L1232.93 125.998C1234.53 125.709 1235.99 126.721 1236.43 128.312C1236.57 128.89 1236.43 129.324 1236.28 129.902L1226.52 156.936C1225.94 158.382 1224.34 159.249 1222.74 158.671C1222.3 158.382 1221.86 158.093 1221.57 157.804V157.804Z" fill="#80F2B9"/>
</g>
<path fill-rule="evenodd" clip-rule="evenodd" d="M26.4049 531.447C26.4049 532.249 26.3267 533.043 26.1704 533.83C26.0141 534.616 25.7826 535.38 25.476 536.121C25.1694 536.862 24.7935 537.566 24.3484 538.232C23.9033 538.899 23.3974 539.516 22.8309 540.083C22.2643 540.65 21.648 541.157 20.9818 541.602C20.3156 542.048 19.6123 542.424 18.8721 542.731C18.1319 543.038 17.3688 543.269 16.583 543.426C15.7972 543.582 15.0037 543.66 14.2024 543.66C13.4012 543.66 12.6077 543.582 11.8219 543.426C11.036 543.269 10.273 543.038 9.53277 542.731C8.79253 542.424 8.08932 542.048 7.42312 541.602C6.75692 541.157 6.14056 540.65 5.574 540.083C5.00745 539.516 4.5016 538.899 4.05646 538.232C3.61133 537.566 3.23545 536.862 2.92884 536.121C2.62222 535.38 2.39076 534.616 2.23446 533.83C2.07815 533.043 2 532.249 2 531.447C2 530.645 2.07815 529.851 2.23446 529.064C2.39076 528.278 2.62222 527.514 2.92884 526.773C3.23545 526.032 3.61133 525.328 4.05646 524.661C4.5016 523.995 5.00745 523.378 5.574 522.811C6.14056 522.244 6.75692 521.737 7.42311 521.292C8.08932 520.846 8.79253 520.47 9.53277 520.163C10.273 519.856 11.036 519.625 11.8219 519.468C12.6077 519.312 13.4012 519.233 14.2024 519.233C15.0037 519.233 15.7972 519.312 16.583 519.468C17.3688 519.625 18.1319 519.856 18.8721 520.163C19.6123 520.47 20.3156 520.846 20.9818 521.292C21.648 521.737 22.2643 522.244 22.8309 522.811C23.3974 523.378 23.9033 523.995 24.3484 524.661C24.7935 525.328 25.1694 526.032 25.476 526.773C25.7826 527.514 26.0141 528.278 26.1704 529.064C26.3267 529.851 26.4049 530.645 26.4049 531.447Z" fill="#4483FC"/>
<path fill-rule="evenodd" clip-rule="evenodd" d="M26.4049 531.447C26.4049 532.249 26.3267 533.043 26.1704 533.83C26.0141 534.616 25.7826 535.38 25.476 536.121C25.1694 536.862 24.7935 537.566 24.3484 538.232C23.9033 538.899 23.3974 539.516 22.8309 540.083C22.2643 540.65 21.648 541.157 20.9818 541.602C20.3156 542.048 19.6123 542.424 18.8721 542.731C18.1319 543.038 17.3688 543.269 16.583 543.426C15.7972 543.582 15.0037 543.66 14.2024 543.66C13.4012 543.66 12.6077 543.582 11.8219 543.426C11.036 543.269 10.273 543.038 9.53277 542.731C8.79253 542.424 8.08932 542.048 7.42312 541.602C6.75692 541.157 6.14056 540.65 5.574 540.083C5.00745 539.516 4.5016 538.899 4.05646 538.232C3.61133 537.566 3.23545 536.862 2.92884 536.121C2.62222 535.38 2.39076 534.616 2.23446 533.83C2.07815 533.043 2 532.249 2 531.447C2 530.645 2.07815 529.851 2.23446 529.064C2.39076 528.278 2.62222 527.514 2.92884 526.773C3.23545 526.032 3.61133 525.328 4.05646 524.661C4.5016 523.995 5.00745 523.378 5.574 522.811C6.14056 522.244 6.75692 521.737 7.42311 521.292C8.08932 520.846 8.79253 520.47 9.53277 520.163C10.273 519.856 11.036 519.625 11.8219 519.468C12.6077 519.312 13.4012 519.233 14.2024 519.233C15.0037 519.233 15.7972 519.312 16.583 519.468C17.3688 519.625 18.1319 519.856 18.8721 520.163C19.6123 520.47 20.3156 520.846 20.9818 521.292C21.648 521.737 22.2643 522.244 22.8309 522.811C23.3974 523.378 23.9033 523.995 24.3484 524.661C24.7935 525.328 25.1694 526.032 25.476 526.773C25.7826 527.514 26.0141 528.278 26.1704 529.064C26.3267 529.851 26.4049 530.645 26.4049 531.447Z" stroke="white" stroke-width="3"/>
<path fill-rule="evenodd" clip-rule="evenodd" d="M343.669 397.097C343.669 397.899 343.59 398.693 343.434 399.48C343.278 400.267 343.046 401.03 342.74 401.771C342.433 402.512 342.057 403.216 341.612 403.883C341.167 404.55 340.661 405.166 340.095 405.734C339.528 406.301 338.912 406.807 338.245 407.252C337.579 407.698 336.876 408.074 336.136 408.381C335.396 408.688 334.632 408.92 333.847 409.076C333.061 409.233 332.267 409.311 331.466 409.311C330.665 409.311 329.871 409.233 329.085 409.076C328.3 408.92 327.537 408.688 326.796 408.381C326.056 408.074 325.353 407.698 324.687 407.252C324.021 406.807 323.404 406.301 322.838 405.734C322.271 405.166 321.765 404.55 321.32 403.883C320.875 403.216 320.499 402.512 320.192 401.771C319.886 401.03 319.654 400.267 319.498 399.48C319.342 398.693 319.264 397.899 319.264 397.097C319.264 396.295 319.342 395.501 319.498 394.715C319.654 393.928 319.886 393.164 320.192 392.423C320.499 391.682 320.875 390.979 321.32 390.312C321.765 389.645 322.271 389.028 322.838 388.461C323.404 387.894 324.021 387.388 324.687 386.942C325.353 386.497 326.056 386.12 326.796 385.813C327.537 385.507 328.3 385.275 329.085 385.118C329.871 384.962 330.665 384.884 331.466 384.884C332.267 384.884 333.061 384.962 333.847 385.118C334.632 385.275 335.396 385.507 336.136 385.813C336.876 386.12 337.579 386.497 338.245 386.942C338.912 387.388 339.528 387.894 340.095 388.461C340.661 389.028 341.167 389.645 341.612 390.312C342.057 390.979 342.433 391.682 342.74 392.423C343.046 393.164 343.278 393.928 343.434 394.715C343.59 395.501 343.669 396.295 343.669 397.097Z" fill="#46B4F1"/>
<path fill-rule="evenodd" clip-rule="evenodd" d="M343.669 397.097C343.669 397.899 343.59 398.693 343.434 399.48C343.278 400.267 343.046 401.03 342.74 401.771C342.433 402.512 342.057 403.216 341.612 403.883C341.167 404.55 340.661 405.166 340.095 405.734C339.528 406.301 338.912 406.807 338.245 407.252C337.579 407.698 336.876 408.074 336.136 408.381C335.396 408.688 334.632 408.92 333.847 409.076C333.061 409.233 332.267 409.311 331.466 409.311C330.665 409.311 329.871 409.233 329.085 409.076C328.3 408.92 327.537 408.688 326.796 408.381C326.056 408.074 325.353 407.698 324.687 407.252C324.021 406.807 323.404 406.301 322.838 405.734C322.271 405.166 321.765 404.55 321.32 403.883C320.875 403.216 320.499 402.512 320.192 401.771C319.886 401.03 319.654 400.267 319.498 399.48C319.342 398.693 319.264 397.899 319.264 397.097C319.264 396.295 319.342 395.501 319.498 394.715C319.654 393.928 319.886 393.164 320.192 392.423C320.499 391.682 320.875 390.979 321.32 390.312C321.765 389.645 322.271 389.028 322.838 388.461C323.404 387.894 324.021 387.388 324.687 386.942C325.353 386.497 326.056 386.12 326.796 385.813C327.537 385.507 328.3 385.275 329.085 385.118C329.871 384.962 330.665 384.884 331.466 384.884C332.267 384.884 333.061 384.962 333.847 385.118C334.632 385.275 335.396 385.507 336.136 385.813C336.876 386.12 337.579 386.497 338.245 386.942C338.912 387.388 339.528 387.894 340.095 388.461C340.661 389.028 341.167 389.645 341.612 390.312C342.057 390.979 342.433 391.682 342.74 392.423C343.046 393.164 343.278 393.928 343.434 394.715C343.59 395.501 343.669 396.295 343.669 397.097Z" stroke="white" stroke-width="3"/>
<path fill-rule="evenodd" clip-rule="evenodd" d="M660.932 298.37C660.932 299.172 660.854 299.966 660.698 300.752C660.541 301.539 660.31 302.303 660.003 303.044C659.697 303.785 659.321 304.488 658.876 305.155C658.43 305.822 657.925 306.439 657.358 307.006C656.792 307.573 656.175 308.079 655.509 308.525C654.843 308.97 654.14 309.347 653.399 309.654C652.659 309.96 651.896 310.192 651.11 310.349C650.324 310.505 649.531 310.583 648.73 310.583C647.929 310.583 647.135 310.505 646.349 310.349C645.563 310.192 644.8 309.96 644.06 309.654C643.32 309.347 642.617 308.97 641.95 308.525C641.284 308.079 640.668 307.573 640.101 307.006C639.535 306.439 639.029 305.822 638.584 305.155C638.139 304.488 637.763 303.785 637.456 303.044C637.149 302.303 636.918 301.539 636.762 300.752C636.605 299.966 636.527 299.172 636.527 298.37C636.527 297.568 636.605 296.774 636.762 295.987C636.918 295.2 637.149 294.437 637.456 293.696C637.763 292.955 638.139 292.251 638.584 291.584C639.029 290.918 639.535 290.301 640.101 289.734C640.668 289.166 641.284 288.66 641.95 288.215C642.617 287.769 643.32 287.393 644.06 287.086C644.8 286.779 645.563 286.547 646.349 286.391C647.135 286.234 647.929 286.156 648.73 286.156C649.531 286.156 650.324 286.234 651.11 286.391C651.896 286.547 652.659 286.779 653.399 287.086C654.14 287.393 654.843 287.769 655.509 288.215C656.175 288.66 656.792 289.166 657.358 289.734C657.925 290.301 658.43 290.918 658.876 291.584C659.321 292.251 659.697 292.955 660.003 293.696C660.31 294.437 660.541 295.2 660.698 295.987C660.854 296.774 660.932 297.568 660.932 298.37Z" fill="#53EBF8"/>
<path fill-rule="evenodd" clip-rule="evenodd" d="M660.932 298.37C660.932 299.172 660.854 299.966 660.698 300.752C660.541 301.539 660.31 302.303 660.003 303.044C659.697 303.785 659.321 304.488 658.876 305.155C658.43 305.822 657.925 306.439 657.358 307.006C656.792 307.573 656.175 308.079 655.509 308.525C654.843 308.97 654.14 309.347 653.399 309.654C652.659 309.96 651.896 310.192 651.11 310.349C650.324 310.505 649.531 310.583 648.73 310.583C647.929 310.583 647.135 310.505 646.349 310.349C645.563 310.192 644.8 309.96 644.06 309.654C643.32 309.347 642.617 308.97 641.95 308.525C641.284 308.079 640.668 307.573 640.101 307.006C639.535 306.439 639.029 305.822 638.584 305.155C638.139 304.488 637.763 303.785 637.456 303.044C637.149 302.303 636.918 301.539 636.762 300.752C636.605 299.966 636.527 299.172 636.527 298.37C636.527 297.568 636.605 296.774 636.762 295.987C636.918 295.2 637.149 294.437 637.456 293.696C637.763 292.955 638.139 292.251 638.584 291.584C639.029 290.918 639.535 290.301 640.101 289.734C640.668 289.166 641.284 288.66 641.95 288.215C642.617 287.769 643.32 287.393 644.06 287.086C644.8 286.779 645.563 286.547 646.349 286.391C647.135 286.234 647.929 286.156 648.73 286.156C649.531 286.156 650.324 286.234 651.11 286.391C651.896 286.547 652.659 286.779 653.399 287.086C654.14 287.393 654.843 287.769 655.509 288.215C656.175 288.66 656.792 289.166 657.358 289.734C657.925 290.301 658.43 290.918 658.876 291.584C659.321 292.251 659.697 292.955 660.003 293.696C660.31 294.437 660.541 295.2 660.698 295.987C660.854 296.774 660.932 297.568 660.932 298.37Z" stroke="white" stroke-width="3"/>
<path fill-rule="evenodd" clip-rule="evenodd" d="M978.196 230.178C978.196 230.98 978.118 231.775 977.961 232.561C977.805 233.348 977.574 234.111 977.267 234.852C976.96 235.593 976.584 236.297 976.139 236.964C975.694 237.631 975.188 238.248 974.622 238.815C974.055 239.382 973.439 239.888 972.773 240.334C972.106 240.779 971.403 241.155 970.663 241.462C969.923 241.769 969.16 242.001 968.374 242.157C967.588 242.314 966.795 242.392 965.993 242.392C965.192 242.392 964.399 242.314 963.613 242.157C962.827 242.001 962.064 241.769 961.324 241.462C960.583 241.155 959.88 240.779 959.214 240.334C958.548 239.888 957.932 239.382 957.365 238.815C956.798 238.248 956.292 237.631 955.847 236.964C955.402 236.297 955.026 235.593 954.72 234.852C954.413 234.111 954.182 233.348 954.025 232.561C953.869 231.775 953.791 230.98 953.791 230.178C953.791 229.376 953.869 228.582 954.025 227.796C954.182 227.009 954.413 226.245 954.72 225.504C955.026 224.764 955.402 224.06 955.847 223.393C956.292 222.726 956.798 222.109 957.365 221.542C957.932 220.975 958.548 220.469 959.214 220.023C959.88 219.578 960.583 219.201 961.324 218.895C962.064 218.588 962.827 218.356 963.613 218.2C964.399 218.043 965.192 217.965 965.993 217.965C966.795 217.965 967.588 218.043 968.374 218.2C969.16 218.356 969.923 218.588 970.663 218.895C971.403 219.201 972.106 219.578 972.773 220.023C973.439 220.469 974.055 220.975 974.622 221.542C975.188 222.109 975.694 222.726 976.139 223.393C976.584 224.06 976.96 224.764 977.267 225.504C977.574 226.245 977.805 227.009 977.961 227.796C978.118 228.582 978.196 229.376 978.196 230.178Z" fill="#56E0BA"/>
<path fill-rule="evenodd" clip-rule="evenodd" d="M978.196 230.178C978.196 230.98 978.118 231.775 977.961 232.561C977.805 233.348 977.574 234.111 977.267 234.852C976.96 235.593 976.584 236.297 976.139 236.964C975.694 237.631 975.188 238.248 974.622 238.815C974.055 239.382 973.439 239.888 972.773 240.334C972.106 240.779 971.403 241.155 970.663 241.462C969.923 241.769 969.16 242.001 968.374 242.157C967.588 242.314 966.795 242.392 965.993 242.392C965.192 242.392 964.399 242.314 963.613 242.157C962.827 242.001 962.064 241.769 961.324 241.462C960.583 241.155 959.88 240.779 959.214 240.334C958.548 239.888 957.932 239.382 957.365 238.815C956.798 238.248 956.292 237.631 955.847 236.964C955.402 236.297 955.026 235.593 954.72 234.852C954.413 234.111 954.182 233.348 954.025 232.561C953.869 231.775 953.791 230.98 953.791 230.178C953.791 229.376 953.869 228.582 954.025 227.796C954.182 227.009 954.413 226.245 954.72 225.504C955.026 224.764 955.402 224.06 955.847 223.393C956.292 222.726 956.798 222.109 957.365 221.542C957.932 220.975 958.548 220.469 959.214 220.023C959.88 219.578 960.583 219.201 961.324 218.895C962.064 218.588 962.827 218.356 963.613 218.2C964.399 218.043 965.192 217.965 965.993 217.965C966.795 217.965 967.588 218.043 968.374 218.2C969.16 218.356 969.923 218.588 970.663 218.895C971.403 219.201 972.106 219.578 972.773 220.023C973.439 220.469 974.055 220.975 974.622 221.542C975.188 222.109 975.694 222.726 976.139 223.393C976.584 224.06 976.96 224.764 977.267 225.504C977.574 226.245 977.805 227.009 977.961 227.796C978.118 228.582 978.196 229.376 978.196 230.178Z" stroke="white" stroke-width="3"/>
<path d="M13.2305 528.77V535.72C87.124 466.577 153.12 425.248 211.22 411.733C240.95 404.809 272.809 400.9 306.795 400.007C326.916 399.479 355.415 400.205 392.293 402.186C425.743 403.982 450.096 404.572 465.352 403.955C490.479 402.939 512.03 399.027 530.005 392.22C547.049 385.766 564.186 375.999 581.415 362.921C591.749 355.076 606.569 342.202 625.876 324.299C648.179 303.616 665.698 288.648 678.437 279.396C699.688 263.959 721.623 252.535 744.243 245.122C766.013 237.989 789.588 233.588 814.968 231.921C830.536 230.898 854.573 230.829 887.079 231.715C920.663 232.629 947.049 232.689 966.236 231.896C998.729 230.551 1030.78 226.813 1062.39 220.68C1121.79 209.178 1176.96 181.743 1227.89 138.375L1224.59 134.483C1174.33 177.272 1119.94 204.332 1061.42 215.664C1030.06 221.748 998.262 225.457 966.025 226.791C946.954 227.58 920.686 227.519 887.218 226.608C854.554 225.718 830.359 225.79 814.634 226.823C788.825 228.518 764.833 233 742.655 240.267C719.528 247.846 697.123 259.51 675.438 275.261C662.537 284.633 644.86 299.729 622.407 320.551C603.225 338.34 588.532 351.107 578.331 358.85C561.493 371.631 544.783 381.162 528.199 387.442C510.74 394.054 489.723 397.856 465.146 398.85C450.05 399.461 425.857 398.872 392.566 397.084C355.553 395.096 326.918 394.368 306.661 394.9C272.33 395.802 240.131 399.754 210.064 406.757C152.052 420.252 86.4404 460.923 13.2305 528.77Z" fill="url(#paint4_linear)"/>
<defs>
<linearGradient id="paint0_linear" x1="14.2305" y1="186.917" x2="14.2305" y2="668" gradientUnits="userSpaceOnUse">
<stop stop-color="#4E84F4"/>
<stop offset="1" stop-color="#4E84F4" stop-opacity="0"/>
</linearGradient>
<linearGradient id="paint1_linear" x1="648.23" y1="20.9167" x2="648.231" y2="502" gradientUnits="userSpaceOnUse">
<stop stop-color="#53EBF8"/>
<stop offset="1" stop-color="#4E84F4" stop-opacity="0"/>
</linearGradient>
<linearGradient id="paint2_linear" x1="331.23" y1="407.937" x2="331.23" y2="691.401" gradientUnits="userSpaceOnUse">
<stop stop-color="#46B4F1"/>
<stop offset="1" stop-color="#46B4F1" stop-opacity="0"/>
</linearGradient>
<linearGradient id="paint3_linear" x1="965.23" y1="240.937" x2="965.23" y2="524.401" gradientUnits="userSpaceOnUse">
<stop stop-color="#55F3C7"/>
<stop offset="1" stop-color="#46B4F1" stop-opacity="0"/>
</linearGradient>
<linearGradient id="paint4_linear" x1="1095.61" y1="198.098" x2="23.7304" y2="528.5" gradientUnits="userSpaceOnUse">
<stop offset="0.112694" stop-color="#80F2B9"/>
<stop offset="0.4024" stop-color="#53EBF8"/>
<stop offset="0.702974" stop-color="#46B4F1"/>
<stop offset="1" stop-color="#4483FC"/>
</linearGradient>
</defs>
</svg>
