<svg width="239" height="55" viewBox="0 0 239 55" fill="none" xmlns="http://www.w3.org/2000/svg">
<path d="M54.7319 34.2333V30.173H57.8084V8.97718H54.9023V4.83115H68.8339C71.4268 4.83115 73.5636 5.223 75.2441 6.00671C76.9247 6.79042 78.2563 7.85164 79.2401 9.19038C80.2227 10.5291 80.9135 12.0822 81.3125 13.8486C81.7115 15.6149 81.9104 17.4813 81.9104 19.4465C81.9104 21.4129 81.6901 23.2924 81.2482 25.0873C80.8063 26.8822 80.0726 28.4567 79.0471 29.8098C78.0217 31.1628 76.6543 32.2383 74.9452 33.0363C73.236 33.8343 71.1124 34.2333 68.5778 34.2333H54.7319ZM64.0042 8.97718V30.173H67.9359C68.7053 30.173 69.5319 30.0301 70.4144 29.7455C71.2982 29.4608 72.1176 28.9344 72.8728 28.1649C73.6267 27.3955 74.2472 26.3272 74.7308 24.9598C75.2155 23.5913 75.4573 21.825 75.4573 19.6609C75.4573 17.467 75.2298 15.6721 74.7737 14.2761C74.3175 12.8802 73.7339 11.7904 73.0216 11.0067C72.3094 10.223 71.5042 9.68942 70.6074 9.40357C69.7105 9.11891 68.8339 8.97718 67.9787 8.97718H64.0042Z" fill="white"/>
<path d="M93.0173 25.1303C91.9918 25.2446 91.2296 25.5578 90.7305 26.07C90.2327 26.5833 89.9825 27.1955 89.9825 27.9078C89.9825 28.9059 90.2112 29.6396 90.6662 30.1088C91.1224 30.5793 91.8775 30.8139 92.9316 30.8139C93.5866 30.8139 94.2774 30.6508 95.004 30.322C95.7305 29.9945 96.3785 29.561 96.949 29.019V24.7456L93.0173 25.1303ZM102.633 30.2589H105.838L106.137 33.464C105.111 33.919 104.1 34.2191 103.102 34.3609C102.105 34.5038 101.265 34.5741 100.582 34.5741C99.6693 34.5741 98.907 34.4109 98.2948 34.0834C97.6826 33.7558 97.3623 33.0221 97.3337 31.8823C97.3051 31.8823 97.2908 31.8752 97.2908 31.8609C97.2908 31.8466 97.2765 31.8394 97.2479 31.8394C96.5357 32.5231 95.8234 33.0579 95.1112 33.4426C94.3989 33.8273 93.7367 34.1048 93.1245 34.2751C92.5111 34.4466 91.949 34.5538 91.4356 34.5967C90.9235 34.6384 90.5245 34.6598 90.2398 34.6598C88.957 34.6598 87.8958 34.4609 87.0561 34.0619C86.2153 33.6629 85.5602 33.1579 85.0897 32.5445C84.6204 31.9323 84.2929 31.2701 84.1071 30.5579C83.9213 29.8456 83.8296 29.1905 83.8296 28.5914C83.8296 27.7946 83.9856 27.0324 84.2989 26.3058C84.6133 25.5793 85.0754 24.9385 85.6876 24.3823C86.301 23.8273 87.0704 23.3711 87.9959 23.015C88.9213 22.6588 89.9825 22.4385 91.1795 22.3527L97.0347 21.968V20.9425C97.0347 19.717 96.7703 18.7844 96.2439 18.1436C95.7162 17.5028 94.6979 17.1824 93.1876 17.1824C92.1622 17.1824 91.0723 17.2813 89.9194 17.4814C88.7653 17.6803 87.7184 17.9375 86.7774 18.2508C86.6071 17.6517 86.4356 17.0466 86.2653 16.4344C86.0938 15.821 85.9377 15.2017 85.7948 14.5752C87.0204 14.0333 88.4306 13.6212 90.0254 13.3353C91.6214 13.0507 93.1591 12.9089 94.6407 12.9089C95.8663 12.9089 96.9776 13.0292 97.9745 13.271C98.9714 13.514 99.8122 13.9201 100.496 14.4895C101.18 15.06 101.706 15.8068 102.076 16.7334C102.447 17.6588 102.633 18.7915 102.633 20.1303V30.2589Z" fill="white"/>
<path d="M124.898 21.7977C124.755 22.0252 124.42 22.5314 123.885 23.3139C123.359 24.0976 122.74 24.9886 122.027 25.9855L116.108 34.2335H110.41V17.0967H107.632V13.3354H116.35V26.1558H116.521V26.1987C116.521 26.1701 116.621 26.0069 116.82 25.7079C117.02 25.4078 117.283 25.0231 117.604 24.5538C117.931 24.0834 118.302 23.5426 118.715 22.9292C119.128 22.317 119.576 21.6691 120.061 20.9854L125.338 13.3354H131.008C131.008 16.1557 131.015 18.9547 131.029 21.7334C131.044 24.5109 131.051 27.3242 131.051 30.1732H133.914V33.6772C133.173 33.9905 132.389 34.2192 131.564 34.3609C130.737 34.5038 129.997 34.5741 129.342 34.5741C128.43 34.5741 127.704 34.4466 127.162 34.1906C126.62 33.9333 126.194 33.5915 125.88 33.1651C125.566 32.7375 125.36 32.2599 125.26 31.7334C125.161 31.2058 125.111 30.6722 125.111 30.1303V21.7977H124.898ZM120.453 11.0283C119.626 11.0283 118.842 10.8782 118.103 10.5793C117.362 10.2803 116.671 9.88132 116.029 9.38346C115.388 8.88441 114.783 8.29961 114.214 7.63024C113.644 6.96087 113.117 6.25577 112.632 5.51494L115.111 3.59259C116.022 4.85986 116.97 5.80079 117.953 6.42013C118.935 7.03948 119.812 7.35272 120.581 7.35272C120.837 7.35272 121.158 7.33843 121.543 7.30985C121.927 7.28245 122.382 7.16096 122.91 6.93943C123.438 6.72623 124.043 6.37726 124.726 5.89965C125.41 5.43037 126.194 4.75386 127.076 3.89154L128.744 5.51494C127.376 7.5957 125.972 9.03329 124.533 9.83129C123.094 10.6293 121.734 11.0283 120.453 11.0283Z" fill="white"/>
<path fill-rule="evenodd" clip-rule="evenodd" d="M148.873 34.2337V30.3866H151.266V17.054H145.967V18.4213C145.967 20.5009 145.867 22.4459 145.668 24.2551C145.468 26.0643 145.054 27.6877 144.428 29.1265C143.801 30.5653 142.925 31.7896 141.8 32.802C140.675 33.8132 139.186 34.5469 137.334 35.0019L135.539 30.8142C136.593 30.3592 137.448 29.8316 138.103 29.2337C138.758 28.6346 139.265 27.8866 139.621 26.9897C139.977 26.0917 140.212 25.0174 140.326 23.7632C140.439 22.5102 140.496 21.0285 140.496 19.3194V17.054H137.291V13.2939H157.205V30.3866H159.727V34.2337H148.873Z" fill="white"/>
<path fill-rule="evenodd" clip-rule="evenodd" d="M179.343 21.7978C179.2 22.0253 178.866 22.5315 178.332 23.314C177.804 24.0977 177.185 24.9886 176.473 25.9855L170.555 34.2335H164.857V17.0967H162.079V13.3354H170.796V26.1558H170.968V26.1987C170.968 26.1701 171.067 26.0069 171.267 25.708C171.466 25.4078 171.729 25.0231 172.049 24.5539C172.378 24.0834 172.748 23.5427 173.161 22.9293C173.574 22.3171 174.023 21.6691 174.508 20.9855L179.785 13.3354H185.455C185.455 16.1558 185.462 18.9547 185.476 21.7335C185.49 24.511 185.497 27.3242 185.497 30.1732H188.361V33.6773C187.62 33.9905 186.836 34.2192 186.01 34.3609C185.184 34.5039 184.443 34.5741 183.788 34.5741C182.876 34.5741 182.149 34.4467 181.609 34.1906C181.067 33.9333 180.639 33.5915 180.326 33.1651C180.013 32.7375 179.807 32.2599 179.707 31.7335C179.607 31.2058 179.557 30.6723 179.557 30.1303V21.7978H179.343Z" fill="white"/>
<path fill-rule="evenodd" clip-rule="evenodd" d="M213.017 13.2939V30.1305H215.838V33.6775C215.126 33.9907 214.349 34.2265 213.509 34.3826C212.668 34.5398 211.92 34.6184 211.265 34.6184C209.727 34.6184 208.644 34.3039 208.017 33.6775C207.391 33.051 207.078 32.0541 207.078 30.6867V25.0447H198.915V34.2337H192.974V17.054H190.283V13.2939H198.915V21.5836H207.078V13.2939H213.017Z" fill="white"/>
<path fill-rule="evenodd" clip-rule="evenodd" d="M218.146 34.2337V30.3866H220.453V17.054H218.232V13.2939H237.162V20.4723H233.231V17.054H226.394V30.3866H229.513V34.2337H218.146Z" fill="white"/>
<path fill-rule="evenodd" clip-rule="evenodd" d="M8.97959 28.0612C8.97959 30.5408 6.96938 32.551 4.4898 32.551C2.01021 32.551 0 30.5408 0 28.0612C0 25.5816 2.01021 23.5714 4.4898 23.5714C6.96938 23.5714 8.97959 25.5816 8.97959 28.0612ZM18.3618 19.6235C19.5364 22.1328 20.2041 25.0067 20.2041 28.0612C20.2041 31.1157 19.5364 33.9896 18.3618 36.499C17.5304 38.2734 16.4455 39.8661 15.1628 41.2094C14.6978 41.697 13.9717 41.6192 13.5876 41.0457L11.4501 37.8524C11.1118 37.3478 11.1586 36.6276 11.5592 36.1874C12.2951 35.3781 12.9209 34.4366 13.4083 33.3948C14.151 31.8088 14.5731 29.9926 14.5731 28.0612C14.5731 26.1299 14.151 24.3136 13.4083 22.7277C12.9209 21.6858 12.2951 20.7444 11.5592 19.935C11.1586 19.4948 11.1118 18.7746 11.4501 18.2701L13.5876 15.0767C13.9717 14.5033 14.6978 14.4254 15.1628 14.913C16.4455 16.2563 17.5304 17.849 18.3618 19.6235ZM26.6237 14.1679C28.5717 18.1327 29.6775 22.6737 29.6775 27.5C29.6775 32.3263 28.5717 36.8673 26.6237 40.8321L24.5794 39.6105C23.5811 39.0142 22.3284 39.3408 21.6949 40.3813L18.6472 44.3416C17.8191 45.2008 17.73 46.6205 18.4263 47.6118L19.8493 49.6378L22.9497 54.0535C23.7433 55.1846 25.2372 55.3199 26.2011 54.3623C28.97 51.6102 31.3113 48.3445 33.1012 44.7008C35.6138 39.5858 37.0408 33.727 37.0408 27.5C37.0408 21.273 35.6138 15.4142 33.1012 10.2992C31.3113 6.65547 28.97 3.38984 26.2011 0.637716C25.2372 -0.319933 23.7433 -0.184564 22.9497 0.946491L19.8493 5.36219L18.4263 7.38825C17.73 8.38058 17.8191 9.79803 18.6472 10.6584L21.6949 14.6198C22.3284 15.6592 23.5811 15.9858 24.5794 15.3895L26.6237 14.1679Z" fill="#325DFB"/>
<path d="M59.3161 42.2321V48.5721H60.2261V51.2521H59.3661V49.3721H54.4561V51.2521H53.5961V48.5721H54.1461C54.3861 48.1588 54.6128 47.6955 54.8261 47.1821C55.0461 46.6688 55.2395 46.1321 55.4061 45.5721C55.5728 45.0055 55.7095 44.4388 55.8161 43.8721C55.9228 43.3055 55.9895 42.7588 56.0161 42.2321H59.3161ZM56.8061 43.0421C56.7795 43.4288 56.7128 43.8655 56.6061 44.3521C56.5061 44.8388 56.3761 45.3388 56.2161 45.8521C56.0628 46.3588 55.8895 46.8488 55.6961 47.3221C55.5095 47.7955 55.3095 48.2121 55.0961 48.5721H58.4261V43.0421H56.8061ZM65.9602 46.6821C65.9602 47.5688 65.7335 48.2555 65.2802 48.7421C64.8335 49.2288 64.2269 49.4721 63.4602 49.4721C62.9869 49.4721 62.5635 49.3655 62.1902 49.1521C61.8235 48.9321 61.5335 48.6155 61.3202 48.2021C61.1069 47.7821 61.0002 47.2755 61.0002 46.6821C61.0002 45.7955 61.2235 45.1121 61.6702 44.6321C62.1169 44.1521 62.7235 43.9121 63.4902 43.9121C63.9769 43.9121 64.4035 44.0221 64.7702 44.2421C65.1435 44.4555 65.4335 44.7688 65.6402 45.1821C65.8535 45.5888 65.9602 46.0888 65.9602 46.6821ZM61.9102 46.6821C61.9102 47.3155 62.0335 47.8188 62.2802 48.1921C62.5335 48.5588 62.9335 48.7421 63.4802 48.7421C64.0202 48.7421 64.4169 48.5588 64.6702 48.1921C64.9235 47.8188 65.0502 47.3155 65.0502 46.6821C65.0502 46.0488 64.9235 45.5521 64.6702 45.1921C64.4169 44.8321 64.0169 44.6521 63.4702 44.6521C62.9235 44.6521 62.5269 44.8321 62.2802 45.1921C62.0335 45.5521 61.9102 46.0488 61.9102 46.6821ZM71.6649 45.3621C71.6649 45.6955 71.5649 45.9555 71.3649 46.1421C71.1649 46.3288 70.9082 46.4555 70.5949 46.5221V46.5621C70.9282 46.6088 71.2182 46.7288 71.4649 46.9221C71.7115 47.1088 71.8349 47.4021 71.8349 47.8021C71.8349 48.2555 71.6649 48.6321 71.3249 48.9321C70.9915 49.2255 70.4382 49.3721 69.6649 49.3721H67.3549V44.0121H69.6549C70.0349 44.0121 70.3749 44.0555 70.6749 44.1421C70.9815 44.2221 71.2215 44.3621 71.3949 44.5621C71.5749 44.7555 71.6649 45.0221 71.6649 45.3621ZM70.7749 45.4721C70.7749 45.2188 70.6815 45.0355 70.4949 44.9221C70.3149 44.8021 70.0182 44.7421 69.6049 44.7421H68.2349V46.2121H69.4449C70.3315 46.2121 70.7749 45.9655 70.7749 45.4721ZM70.9249 47.8021C70.9249 47.4955 70.8082 47.2755 70.5749 47.1421C70.3415 47.0088 69.9982 46.9421 69.5449 46.9421H68.2349V48.6621H69.5649C70.0049 48.6621 70.3415 48.5988 70.5749 48.4721C70.8082 48.3388 70.9249 48.1155 70.9249 47.8021ZM75.1866 43.9121C75.6466 43.9121 76.0399 44.0121 76.3666 44.2121C76.6999 44.4121 76.9533 44.6955 77.1266 45.0621C77.3066 45.4221 77.3966 45.8455 77.3966 46.3321V46.8621H73.7266C73.7399 47.4688 73.8933 47.9321 74.1866 48.2521C74.4866 48.5655 74.9033 48.7221 75.4366 48.7221C75.7766 48.7221 76.0766 48.6921 76.3366 48.6321C76.6033 48.5655 76.8766 48.4721 77.1566 48.3521V49.1221C76.8833 49.2421 76.6133 49.3288 76.3466 49.3821C76.0799 49.4421 75.7633 49.4721 75.3966 49.4721C74.8899 49.4721 74.4399 49.3688 74.0466 49.1621C73.6599 48.9555 73.3566 48.6488 73.1366 48.2421C72.9233 47.8288 72.8166 47.3255 72.8166 46.7321C72.8166 46.1455 72.9133 45.6421 73.1066 45.2221C73.3066 44.8021 73.5833 44.4788 73.9366 44.2521C74.2966 44.0255 74.7133 43.9121 75.1866 43.9121ZM75.1766 44.6321C74.7566 44.6321 74.4233 44.7688 74.1766 45.0421C73.9366 45.3088 73.7933 45.6821 73.7466 46.1621H76.4766C76.4699 45.7088 76.3633 45.3421 76.1566 45.0621C75.9499 44.7755 75.6233 44.6321 75.1766 44.6321ZM81.3111 43.9121C81.9711 43.9121 82.5011 44.1421 82.9011 44.6021C83.3078 45.0621 83.5111 45.7555 83.5111 46.6821C83.5111 47.5955 83.3078 48.2888 82.9011 48.7621C82.5011 49.2355 81.9678 49.4721 81.3011 49.4721C80.8878 49.4721 80.5445 49.3955 80.2711 49.2421C80.0045 49.0821 79.7945 48.8988 79.6411 48.6921H79.5811C79.5945 48.8055 79.6078 48.9488 79.6211 49.1221C79.6345 49.2955 79.6411 49.4455 79.6411 49.5721V51.7721H78.7611V44.0121H79.4811L79.6011 44.7421H79.6411C79.8011 44.5088 80.0111 44.3121 80.2711 44.1521C80.5311 43.9921 80.8778 43.9121 81.3111 43.9121ZM81.1511 44.6521C80.6045 44.6521 80.2178 44.8055 79.9911 45.1121C79.7711 45.4188 79.6545 45.8855 79.6411 46.5121V46.6821C79.6411 47.3421 79.7478 47.8521 79.9611 48.2121C80.1811 48.5655 80.5845 48.7421 81.1711 48.7421C81.4978 48.7421 81.7645 48.6521 81.9711 48.4721C82.1845 48.2921 82.3411 48.0488 82.4411 47.7421C82.5478 47.4288 82.6011 47.0721 82.6011 46.6721C82.6011 46.0588 82.4811 45.5688 82.2411 45.2021C82.0078 44.8355 81.6445 44.6521 81.1511 44.6521ZM87.3835 46.2121C88.7768 46.2121 89.4735 46.7188 89.4735 47.7321C89.4735 48.2321 89.3035 48.6321 88.9635 48.9321C88.6235 49.2255 88.0835 49.3721 87.3435 49.3721H84.9135V44.0121H85.7935V46.2121H87.3835ZM88.5935 47.7821C88.5935 47.4555 88.4768 47.2355 88.2435 47.1221C88.0168 47.0021 87.6968 46.9421 87.2835 46.9421H85.7935V48.6621H87.3035C87.6768 48.6621 87.9835 48.5955 88.2235 48.4621C88.4701 48.3288 88.5935 48.1021 88.5935 47.7821ZM97.9442 45.3621C97.9442 45.6955 97.8442 45.9555 97.6442 46.1421C97.4442 46.3288 97.1875 46.4555 96.8742 46.5221V46.5621C97.2075 46.6088 97.4975 46.7288 97.7442 46.9221C97.9908 47.1088 98.1142 47.4021 98.1142 47.8021C98.1142 48.2555 97.9442 48.6321 97.6042 48.9321C97.2708 49.2255 96.7175 49.3721 95.9442 49.3721H93.6342V44.0121H95.9342C96.3142 44.0121 96.6542 44.0555 96.9542 44.1421C97.2608 44.2221 97.5008 44.3621 97.6742 44.5621C97.8542 44.7555 97.9442 45.0221 97.9442 45.3621ZM97.0542 45.4721C97.0542 45.2188 96.9608 45.0355 96.7742 44.9221C96.5942 44.8021 96.2975 44.7421 95.8842 44.7421H94.5142V46.2121H95.7242C96.6108 46.2121 97.0542 45.9655 97.0542 45.4721ZM97.2042 47.8021C97.2042 47.4955 97.0875 47.2755 96.8542 47.1421C96.6208 47.0088 96.2775 46.9421 95.8242 46.9421H94.5142V48.6621H95.8442C96.2842 48.6621 96.6208 48.5988 96.8542 48.4721C97.0875 48.3388 97.2042 48.1155 97.2042 47.8021ZM101.466 43.9121C101.926 43.9121 102.319 44.0121 102.646 44.2121C102.979 44.4121 103.233 44.6955 103.406 45.0621C103.586 45.4221 103.676 45.8455 103.676 46.3321V46.8621H100.006C100.019 47.4688 100.173 47.9321 100.466 48.2521C100.766 48.5655 101.183 48.7221 101.716 48.7221C102.056 48.7221 102.356 48.6921 102.616 48.6321C102.883 48.5655 103.156 48.4721 103.436 48.3521V49.1221C103.163 49.2421 102.893 49.3288 102.626 49.3821C102.359 49.4421 102.043 49.4721 101.676 49.4721C101.169 49.4721 100.719 49.3688 100.326 49.1621C99.9392 48.9555 99.6359 48.6488 99.4159 48.2421C99.2026 47.8288 99.0959 47.3255 99.0959 46.7321C99.0959 46.1455 99.1926 45.6421 99.3859 45.2221C99.5859 44.8021 99.8626 44.4788 100.216 44.2521C100.576 44.0255 100.993 43.9121 101.466 43.9121ZM101.456 44.6321C101.036 44.6321 100.703 44.7688 100.456 45.0421C100.216 45.3088 100.073 45.6821 100.026 46.1621H102.756C102.749 45.7088 102.643 45.3421 102.436 45.0621C102.229 44.7755 101.903 44.6321 101.456 44.6321ZM111.47 44.0121L109.26 46.6121L111.66 49.3721H110.66L108.34 46.6521V49.3721H107.52V46.6521L105.2 49.3721H104.2L106.6 46.6121L104.39 44.0121H105.35L107.52 46.6121V44.0121H108.34V46.6121L110.52 44.0121H111.47ZM116.62 49.3721H115.73V44.7421H114.15C114.064 45.8688 113.944 46.7788 113.79 47.4721C113.637 48.1588 113.434 48.6588 113.18 48.9721C112.927 49.2855 112.607 49.4421 112.22 49.4421C112.134 49.4421 112.047 49.4355 111.96 49.4221C111.88 49.4155 111.814 49.3988 111.76 49.3721V48.7121C111.8 48.7255 111.844 48.7355 111.89 48.7421C111.937 48.7488 111.984 48.7521 112.03 48.7521C112.39 48.7521 112.677 48.3688 112.89 47.6021C113.11 46.8355 113.277 45.6388 113.39 44.0121H116.62V49.3721ZM119.152 47.2821C119.152 47.3621 119.148 47.4821 119.142 47.6421C119.135 47.8021 119.125 47.9621 119.112 48.1221C119.105 48.2821 119.098 48.4088 119.092 48.5021L121.962 44.0121H123.042V49.3721H122.222V46.2121C122.222 46.1055 122.222 45.9655 122.222 45.7921C122.228 45.6188 122.235 45.4488 122.242 45.2821C122.248 45.1088 122.255 44.9788 122.262 44.8921L119.412 49.3721H118.322V44.0121H119.152V47.2821ZM129.057 45.3621C129.057 45.6955 128.957 45.9555 128.757 46.1421C128.557 46.3288 128.301 46.4555 127.987 46.5221V46.5621C128.321 46.6088 128.611 46.7288 128.857 46.9221C129.104 47.1088 129.227 47.4021 129.227 47.8021C129.227 48.2555 129.057 48.6321 128.717 48.9321C128.384 49.2255 127.831 49.3721 127.057 49.3721H124.747V44.0121H127.047C127.427 44.0121 127.767 44.0555 128.067 44.1421C128.374 44.2221 128.614 44.3621 128.787 44.5621C128.967 44.7555 129.057 45.0221 129.057 45.3621ZM128.167 45.4721C128.167 45.2188 128.074 45.0355 127.887 44.9221C127.707 44.8021 127.411 44.7421 126.997 44.7421H125.627V46.2121H126.837C127.724 46.2121 128.167 45.9655 128.167 45.4721ZM128.317 47.8021C128.317 47.4955 128.201 47.2755 127.967 47.1421C127.734 47.0088 127.391 46.9421 126.937 46.9421H125.627V48.6621H126.957C127.397 48.6621 127.734 48.5988 127.967 48.4721C128.201 48.3388 128.317 48.1155 128.317 47.8021ZM135.169 46.6821C135.169 47.5688 134.943 48.2555 134.489 48.7421C134.043 49.2288 133.436 49.4721 132.669 49.4721C132.196 49.4721 131.773 49.3655 131.399 49.1521C131.033 48.9321 130.743 48.6155 130.529 48.2021C130.316 47.7821 130.209 47.2755 130.209 46.6821C130.209 45.7955 130.433 45.1121 130.879 44.6321C131.326 44.1521 131.933 43.9121 132.699 43.9121C133.186 43.9121 133.613 44.0221 133.979 44.2421C134.353 44.4555 134.643 44.7688 134.849 45.1821C135.063 45.5888 135.169 46.0888 135.169 46.6821ZM131.119 46.6821C131.119 47.3155 131.243 47.8188 131.489 48.1921C131.743 48.5588 132.143 48.7421 132.689 48.7421C133.229 48.7421 133.626 48.5588 133.879 48.1921C134.133 47.8188 134.259 47.3155 134.259 46.6821C134.259 46.0488 134.133 45.5521 133.879 45.1921C133.626 44.8321 133.226 44.6521 132.679 44.6521C132.133 44.6521 131.736 44.8321 131.489 45.1921C131.243 45.5521 131.119 46.0488 131.119 46.6821ZM138.714 49.4721C138.241 49.4721 137.817 49.3755 137.444 49.1821C137.077 48.9888 136.787 48.6888 136.574 48.2821C136.367 47.8755 136.264 47.3555 136.264 46.7221C136.264 46.0621 136.374 45.5255 136.594 45.1121C136.814 44.6988 137.111 44.3955 137.484 44.2021C137.864 44.0088 138.294 43.9121 138.774 43.9121C139.047 43.9121 139.311 43.9421 139.564 44.0021C139.817 44.0555 140.024 44.1221 140.184 44.2021L139.914 44.9321C139.754 44.8721 139.567 44.8155 139.354 44.7621C139.141 44.7088 138.941 44.6821 138.754 44.6821C137.701 44.6821 137.174 45.3588 137.174 46.7121C137.174 47.3588 137.301 47.8555 137.554 48.2021C137.814 48.5421 138.197 48.7121 138.704 48.7121C138.997 48.7121 139.254 48.6821 139.474 48.6221C139.701 48.5621 139.907 48.4888 140.094 48.4021V49.1821C139.914 49.2755 139.714 49.3455 139.494 49.3921C139.281 49.4455 139.021 49.4721 138.714 49.4721ZM145.069 44.7521H143.319V49.3721H142.449V44.7521H140.719V44.0121H145.069V44.7521ZM148.594 46.2121C149.988 46.2121 150.684 46.7188 150.684 47.7321C150.684 48.2321 150.514 48.6321 150.174 48.9321C149.834 49.2255 149.294 49.3721 148.554 49.3721H146.124V44.0121H147.004V46.2121H148.594ZM149.804 47.7821C149.804 47.4555 149.688 47.2355 149.454 47.1221C149.228 47.0021 148.908 46.9421 148.494 46.9421H147.004V48.6621H148.514C148.888 48.6621 149.194 48.5955 149.434 48.4621C149.681 48.3288 149.804 48.1021 149.804 47.7821ZM159.375 44.0121V49.3721H158.495V44.7621H155.725V49.3721H154.845V44.0121H159.375ZM163.635 43.9121C164.295 43.9121 164.825 44.1421 165.225 44.6021C165.632 45.0621 165.835 45.7555 165.835 46.6821C165.835 47.5955 165.632 48.2888 165.225 48.7621C164.825 49.2355 164.292 49.4721 163.625 49.4721C163.212 49.4721 162.869 49.3955 162.595 49.2421C162.329 49.0821 162.119 48.8988 161.965 48.6921H161.905C161.919 48.8055 161.932 48.9488 161.945 49.1221C161.959 49.2955 161.965 49.4455 161.965 49.5721V51.7721H161.085V44.0121H161.805L161.925 44.7421H161.965C162.125 44.5088 162.335 44.3121 162.595 44.1521C162.855 43.9921 163.202 43.9121 163.635 43.9121ZM163.475 44.6521C162.929 44.6521 162.542 44.8055 162.315 45.1121C162.095 45.4188 161.979 45.8855 161.965 46.5121V46.6821C161.965 47.3421 162.072 47.8521 162.285 48.2121C162.505 48.5655 162.909 48.7421 163.495 48.7421C163.822 48.7421 164.089 48.6521 164.295 48.4721C164.509 48.2921 164.665 48.0488 164.765 47.7421C164.872 47.4288 164.925 47.0721 164.925 46.6721C164.925 46.0588 164.805 45.5688 164.565 45.2021C164.332 44.8355 163.969 44.6521 163.475 44.6521ZM171.898 46.6821C171.898 47.5688 171.671 48.2555 171.218 48.7421C170.771 49.2288 170.164 49.4721 169.398 49.4721C168.924 49.4721 168.501 49.3655 168.128 49.1521C167.761 48.9321 167.471 48.6155 167.258 48.2021C167.044 47.7821 166.938 47.2755 166.938 46.6821C166.938 45.7955 167.161 45.1121 167.608 44.6321C168.054 44.1521 168.661 43.9121 169.428 43.9121C169.914 43.9121 170.341 44.0221 170.708 44.2421C171.081 44.4555 171.371 44.7688 171.578 45.1821C171.791 45.5888 171.898 46.0888 171.898 46.6821ZM167.848 46.6821C167.848 47.3155 167.971 47.8188 168.218 48.1921C168.471 48.5588 168.871 48.7421 169.418 48.7421C169.958 48.7421 170.354 48.5588 170.608 48.1921C170.861 47.8188 170.988 47.3155 170.988 46.6821C170.988 46.0488 170.861 45.5521 170.608 45.1921C170.354 44.8321 169.954 44.6521 169.408 44.6521C168.861 44.6521 168.464 44.8321 168.218 45.1921C167.971 45.5521 167.848 46.0488 167.848 46.6821ZM176.492 43.9321C177.026 43.9788 177.489 44.1188 177.882 44.3521C178.282 44.5855 178.592 44.8988 178.812 45.2921C179.032 45.6855 179.142 46.1521 179.142 46.6921C179.142 47.4988 178.906 48.1421 178.432 48.6221C177.966 49.1021 177.319 49.3788 176.492 49.4521V51.7721H175.632V49.4521C175.106 49.4055 174.642 49.2688 174.242 49.0421C173.842 48.8088 173.532 48.4955 173.312 48.1021C173.092 47.7021 172.982 47.2321 172.982 46.6921C172.982 45.8788 173.216 45.2321 173.682 44.7521C174.156 44.2721 174.816 43.9988 175.662 43.9321V41.7721H176.492V43.9321ZM175.662 44.6621C175.049 44.7221 174.602 44.9255 174.322 45.2721C174.042 45.6121 173.902 46.0855 173.902 46.6921C173.902 47.2988 174.042 47.7755 174.322 48.1221C174.609 48.4688 175.056 48.6721 175.662 48.7321V44.6621ZM176.492 48.7321C177.092 48.6655 177.532 48.4588 177.812 48.1121C178.092 47.7655 178.232 47.2921 178.232 46.6921C178.232 46.0921 178.089 45.6221 177.802 45.2821C177.522 44.9421 177.086 44.7388 176.492 44.6721V48.7321ZM182.608 43.9121C183.068 43.9121 183.462 44.0121 183.788 44.2121C184.122 44.4121 184.375 44.6955 184.548 45.0621C184.728 45.4221 184.818 45.8455 184.818 46.3321V46.8621H181.148C181.162 47.4688 181.315 47.9321 181.608 48.2521C181.908 48.5655 182.325 48.7221 182.858 48.7221C183.198 48.7221 183.498 48.6921 183.758 48.6321C184.025 48.5655 184.298 48.4721 184.578 48.3521V49.1221C184.305 49.2421 184.035 49.3288 183.768 49.3821C183.502 49.4421 183.185 49.4721 182.818 49.4721C182.312 49.4721 181.862 49.3688 181.468 49.1621C181.082 48.9555 180.778 48.6488 180.558 48.2421C180.345 47.8288 180.238 47.3255 180.238 46.7321C180.238 46.1455 180.335 45.6421 180.528 45.2221C180.728 44.8021 181.005 44.4788 181.358 44.2521C181.718 44.0255 182.135 43.9121 182.608 43.9121ZM182.598 44.6321C182.178 44.6321 181.845 44.7688 181.598 45.0421C181.358 45.3088 181.215 45.6821 181.168 46.1621H183.898C183.892 45.7088 183.785 45.3421 183.578 45.0621C183.372 44.7755 183.045 44.6321 182.598 44.6321ZM188.333 49.4721C187.86 49.4721 187.436 49.3755 187.063 49.1821C186.696 48.9888 186.406 48.6888 186.193 48.2821C185.986 47.8755 185.883 47.3555 185.883 46.7221C185.883 46.0621 185.993 45.5255 186.213 45.1121C186.433 44.6988 186.73 44.3955 187.103 44.2021C187.483 44.0088 187.913 43.9121 188.393 43.9121C188.666 43.9121 188.93 43.9421 189.183 44.0021C189.436 44.0555 189.643 44.1221 189.803 44.2021L189.533 44.9321C189.373 44.8721 189.186 44.8155 188.973 44.7621C188.76 44.7088 188.56 44.6821 188.373 44.6821C187.32 44.6821 186.793 45.3588 186.793 46.7121C186.793 47.3588 186.92 47.8555 187.173 48.2021C187.433 48.5421 187.816 48.7121 188.323 48.7121C188.616 48.7121 188.873 48.6821 189.093 48.6221C189.32 48.5621 189.526 48.4888 189.713 48.4021V49.1821C189.533 49.2755 189.333 49.3455 189.113 49.3921C188.9 49.4455 188.64 49.4721 188.333 49.4721ZM193.138 49.4721C192.664 49.4721 192.241 49.3755 191.868 49.1821C191.501 48.9888 191.211 48.6888 190.998 48.2821C190.791 47.8755 190.688 47.3555 190.688 46.7221C190.688 46.0621 190.798 45.5255 191.018 45.1121C191.238 44.6988 191.534 44.3955 191.908 44.2021C192.288 44.0088 192.718 43.9121 193.198 43.9121C193.471 43.9121 193.734 43.9421 193.988 44.0021C194.241 44.0555 194.448 44.1221 194.608 44.2021L194.338 44.9321C194.178 44.8721 193.991 44.8155 193.778 44.7621C193.564 44.7088 193.364 44.6821 193.178 44.6821C192.124 44.6821 191.598 45.3588 191.598 46.7121C191.598 47.3588 191.724 47.8555 191.978 48.2021C192.238 48.5421 192.621 48.7121 193.128 48.7121C193.421 48.7121 193.678 48.6821 193.898 48.6221C194.124 48.5621 194.331 48.4888 194.518 48.4021V49.1821C194.338 49.2755 194.138 49.3455 193.918 49.3921C193.704 49.4455 193.444 49.4721 193.138 49.4721ZM196.622 47.2821C196.622 47.3621 196.619 47.4821 196.612 47.6421C196.606 47.8021 196.596 47.9621 196.582 48.1221C196.576 48.2821 196.569 48.4088 196.562 48.5021L199.432 44.0121H200.512V49.3721H199.692V46.2121C199.692 46.1055 199.692 45.9655 199.692 45.7921C199.699 45.6188 199.706 45.4488 199.712 45.2821C199.719 45.1088 199.726 44.9788 199.732 44.8921L196.882 49.3721H195.792V44.0121H196.622V47.2821ZM206.878 46.6821C206.878 47.5688 206.651 48.2555 206.198 48.7421C205.751 49.2288 205.145 49.4721 204.378 49.4721C203.905 49.4721 203.481 49.3655 203.108 49.1521C202.741 48.9321 202.451 48.6155 202.238 48.2021C202.025 47.7821 201.918 47.2755 201.918 46.6821C201.918 45.7955 202.141 45.1121 202.588 44.6321C203.035 44.1521 203.641 43.9121 204.408 43.9121C204.895 43.9121 205.321 44.0221 205.688 44.2421C206.061 44.4555 206.351 44.7688 206.558 45.1821C206.771 45.5888 206.878 46.0888 206.878 46.6821ZM202.828 46.6821C202.828 47.3155 202.951 47.8188 203.198 48.1921C203.451 48.5588 203.851 48.7421 204.398 48.7421C204.938 48.7421 205.335 48.5588 205.588 48.1921C205.841 47.8188 205.968 47.3155 205.968 46.6821C205.968 46.0488 205.841 45.5521 205.588 45.1921C205.335 44.8321 204.935 44.6521 204.388 44.6521C203.841 44.6521 203.445 44.8321 203.198 45.1921C202.951 45.5521 202.828 46.0488 202.828 46.6821ZM209.153 44.0121V46.2421H212.063V44.0121H212.943V49.3721H212.063V46.9821H209.153V49.3721H208.273V44.0121H209.153ZM216.67 43.9221C217.323 43.9221 217.807 44.0655 218.12 44.3521C218.433 44.6388 218.59 45.0955 218.59 45.7221V49.3721H217.95L217.78 48.6121H217.74C217.507 48.9055 217.26 49.1221 217 49.2621C216.747 49.4021 216.393 49.4721 215.94 49.4721C215.453 49.4721 215.05 49.3455 214.73 49.0921C214.41 48.8321 214.25 48.4288 214.25 47.8821C214.25 47.3488 214.46 46.9388 214.88 46.6521C215.3 46.3588 215.947 46.1988 216.82 46.1721L217.73 46.1421V45.8221C217.73 45.3755 217.633 45.0655 217.44 44.8921C217.247 44.7188 216.973 44.6321 216.62 44.6321C216.34 44.6321 216.073 44.6755 215.82 44.7621C215.567 44.8421 215.33 44.9355 215.11 45.0421L214.84 44.3821C215.073 44.2555 215.35 44.1488 215.67 44.0621C215.99 43.9688 216.323 43.9221 216.67 43.9221ZM216.93 46.7821C216.263 46.8088 215.8 46.9155 215.54 47.1021C215.287 47.2888 215.16 47.5521 215.16 47.8921C215.16 48.1921 215.25 48.4121 215.43 48.5521C215.617 48.6921 215.853 48.7621 216.14 48.7621C216.593 48.7621 216.97 48.6388 217.27 48.3921C217.57 48.1388 217.72 47.7521 217.72 47.2321V46.7521L216.93 46.7821ZM224.326 49.3721H223.436V44.7421H221.856C221.769 45.8688 221.649 46.7788 221.496 47.4721C221.342 48.1588 221.139 48.6588 220.886 48.9721C220.632 49.2855 220.312 49.4421 219.926 49.4421C219.839 49.4421 219.752 49.4355 219.666 49.4221C219.586 49.4155 219.519 49.3988 219.466 49.3721V48.7121C219.506 48.7255 219.549 48.7355 219.596 48.7421C219.642 48.7488 219.689 48.7521 219.736 48.7521C220.096 48.7521 220.382 48.3688 220.596 47.6021C220.816 46.8355 220.982 45.6388 221.096 44.0121H224.326V49.3721ZM228.057 43.9221C228.71 43.9221 229.193 44.0655 229.507 44.3521C229.82 44.6388 229.977 45.0955 229.977 45.7221V49.3721H229.337L229.167 48.6121H229.127C228.893 48.9055 228.647 49.1221 228.387 49.2621C228.133 49.4021 227.78 49.4721 227.327 49.4721C226.84 49.4721 226.437 49.3455 226.117 49.0921C225.797 48.8321 225.637 48.4288 225.637 47.8821C225.637 47.3488 225.847 46.9388 226.267 46.6521C226.687 46.3588 227.333 46.1988 228.207 46.1721L229.117 46.1421V45.8221C229.117 45.3755 229.02 45.0655 228.827 44.8921C228.633 44.7188 228.36 44.6321 228.007 44.6321C227.727 44.6321 227.46 44.6755 227.207 44.7621C226.953 44.8421 226.717 44.9355 226.497 45.0421L226.227 44.3821C226.46 44.2555 226.737 44.1488 227.057 44.0621C227.377 43.9688 227.71 43.9221 228.057 43.9221ZM228.317 46.7821C227.65 46.8088 227.187 46.9155 226.927 47.1021C226.673 47.2888 226.547 47.5521 226.547 47.8921C226.547 48.1921 226.637 48.4121 226.817 48.5521C227.003 48.6921 227.24 48.7621 227.527 48.7621C227.98 48.7621 228.357 48.6388 228.657 48.3921C228.957 48.1388 229.107 47.7521 229.107 47.2321V46.7521L228.317 46.7821ZM237.382 44.0121V49.3721H236.592V45.9521C236.592 45.8121 236.596 45.6655 236.602 45.5121C236.616 45.3588 236.629 45.2088 236.642 45.0621H236.612L234.862 49.3721H234.122L232.422 45.0621H232.392C232.412 45.3621 232.422 45.6688 232.422 45.9821V49.3721H231.632V44.0121H232.802L234.492 48.3221L236.212 44.0121H237.382Z" fill="white"/>
</svg>
