<svg width="22" height="22" viewBox="0 0 22 22" fill="none" xmlns="http://www.w3.org/2000/svg">
<mask id="path-1-outside-1" maskUnits="userSpaceOnUse" x="0" y="0" width="22" height="22" fill="black">
<rect fill="white" width="22" height="22"/>
<path fill-rule="evenodd" clip-rule="evenodd" d="M3.28925 9.84536C3.65672 9.97899 4.06038 9.78829 4.193 9.42377C4.92637 7.40775 6.47953 5.9055 8.31453 5.172C8.7799 6.19144 9.8082 6.90202 11 6.90202C12.6272 6.90202 13.951 5.57821 13.951 3.95101C13.951 2.32385 12.6272 1 11 1C9.43671 1 8.15415 2.22209 8.05578 3.76097C5.74435 4.59747 3.77753 6.44036 2.86765 8.94161C2.73446 9.30764 2.92327 9.71222 3.28925 9.84536ZM13.8036 18.5775C11.1999 19.6719 8.18207 19.145 6.0958 17.2257C7.85813 15.3589 6.54618 12.251 3.95101 12.251C2.32381 12.251 1 13.5748 1 15.202C1 17.2044 2.96533 18.6331 4.87204 18.005C7.37527 20.5156 11.135 21.229 14.3501 19.8776C14.7091 19.7267 14.8778 19.3133 14.7269 18.9543C14.576 18.5952 14.1627 18.4266 13.8036 18.5775ZM16.7934 5.47356C18.7686 7.25559 19.8707 9.91225 19.6145 12.702C20.4459 13.2245 21.0001 14.1494 21.0001 15.2018C21.0001 16.829 19.6762 18.1528 18.049 18.1528C16.4218 18.1528 15.098 16.829 15.098 15.2018C15.098 13.519 16.5178 12.1514 18.2323 12.257C18.3388 10.057 17.4427 7.95886 15.8487 6.52073C15.5595 6.25982 15.5366 5.81394 15.7975 5.52478C16.0584 5.23562 16.5042 5.21274 16.7934 5.47356Z"/>
</mask>
<path fill-rule="evenodd" clip-rule="evenodd" d="M3.28925 9.84536C3.65672 9.97899 4.06038 9.78829 4.193 9.42377C4.92637 7.40775 6.47953 5.9055 8.31453 5.172C8.7799 6.19144 9.8082 6.90202 11 6.90202C12.6272 6.90202 13.951 5.57821 13.951 3.95101C13.951 2.32385 12.6272 1 11 1C9.43671 1 8.15415 2.22209 8.05578 3.76097C5.74435 4.59747 3.77753 6.44036 2.86765 8.94161C2.73446 9.30764 2.92327 9.71222 3.28925 9.84536ZM13.8036 18.5775C11.1999 19.6719 8.18207 19.145 6.0958 17.2257C7.85813 15.3589 6.54618 12.251 3.95101 12.251C2.32381 12.251 1 13.5748 1 15.202C1 17.2044 2.96533 18.6331 4.87204 18.005C7.37527 20.5156 11.135 21.229 14.3501 19.8776C14.7091 19.7267 14.8778 19.3133 14.7269 18.9543C14.576 18.5952 14.1627 18.4266 13.8036 18.5775ZM16.7934 5.47356C18.7686 7.25559 19.8707 9.91225 19.6145 12.702C20.4459 13.2245 21.0001 14.1494 21.0001 15.2018C21.0001 16.829 19.6762 18.1528 18.049 18.1528C16.4218 18.1528 15.098 16.829 15.098 15.2018C15.098 13.519 16.5178 12.1514 18.2323 12.257C18.3388 10.057 17.4427 7.95886 15.8487 6.52073C15.5595 6.25982 15.5366 5.81394 15.7975 5.52478C16.0584 5.23562 16.5042 5.21274 16.7934 5.47356Z" fill="#325DFB"/>
<path d="M4.193 9.42377L4.66287 9.59471L4.66288 9.59469L4.193 9.42377ZM3.28925 9.84536L3.11831 10.3152L3.11837 10.3153L3.28925 9.84536ZM8.31453 5.172L8.76938 4.96436L8.57148 4.53082L8.12895 4.70771L8.31453 5.172ZM8.05578 3.76097L8.22593 4.23113L8.53387 4.11969L8.55477 3.79287L8.05578 3.76097ZM2.86765 8.94161L3.33751 9.11258L3.33753 9.11254L2.86765 8.94161ZM6.0958 17.2257L5.73223 16.8824L5.38454 17.2507L5.75728 17.5936L6.0958 17.2257ZM13.8036 18.5775L13.6099 18.1165L13.6098 18.1165L13.8036 18.5775ZM4.87204 18.005L5.22612 17.652L5.00843 17.4336L4.7156 17.5301L4.87204 18.005ZM14.3501 19.8776L14.1563 19.4167H14.1563L14.3501 19.8776ZM14.7269 18.9543L14.2659 19.148L14.266 19.148L14.7269 18.9543ZM19.6145 12.702L19.1166 12.6563L19.0886 12.962L19.3485 13.1253L19.6145 12.702ZM16.7934 5.47356L17.1283 5.10232L17.1283 5.10229L16.7934 5.47356ZM18.2323 12.257L18.2015 12.7561L18.7072 12.7873L18.7317 12.2812L18.2323 12.257ZM15.8487 6.52073L15.5137 6.89195L15.5137 6.89197L15.8487 6.52073ZM15.7975 5.52478L15.4262 5.18982L15.4262 5.18985L15.7975 5.52478ZM3.72313 9.25283C3.68445 9.35915 3.56683 9.41427 3.46012 9.37547L3.11837 10.3153C3.74662 10.5437 4.43632 10.2174 4.66287 9.59471L3.72313 9.25283ZM8.12895 4.70771C6.16773 5.49167 4.50733 7.09708 3.72312 9.25284L4.66288 9.59469C5.34541 7.71843 6.79133 6.31933 8.50012 5.63628L8.12895 4.70771ZM11 6.40202C10.0119 6.40202 9.1568 5.81306 8.76938 4.96436L7.85968 5.37963C8.40299 6.56982 9.60446 7.40202 11 7.40202V6.40202ZM13.451 3.95101C13.451 5.30207 12.351 6.40202 11 6.40202V7.40202C12.9033 7.40202 14.451 5.85436 14.451 3.95101H13.451ZM11 1.5C12.3511 1.5 13.451 2.59999 13.451 3.95101H14.451C14.451 2.04771 12.9034 0.5 11 0.5V1.5ZM8.55477 3.79287C8.63644 2.51516 9.70251 1.5 11 1.5V0.5C9.17091 0.5 7.67187 1.92902 7.5568 3.72907L8.55477 3.79287ZM3.33753 9.11254C4.19465 6.7563 6.04791 5.01934 8.22593 4.23113L7.88563 3.29081C5.44079 4.17559 3.3604 6.12443 2.39777 8.77069L3.33753 9.11254ZM3.46019 9.37549C3.35365 9.33673 3.29878 9.21902 3.33751 9.11258L2.39779 8.77064C2.17015 9.39625 2.49289 10.0877 3.11831 10.3152L3.46019 9.37549ZM5.75728 17.5936C7.98722 19.6452 11.213 20.2088 13.9973 19.0384L13.6098 18.1165C11.1869 19.135 8.37691 18.6449 6.43433 16.8577L5.75728 17.5936ZM3.95101 12.751C6.10267 12.751 7.19691 15.331 5.73223 16.8824L6.45938 17.5689C8.51936 15.3869 6.98969 11.751 3.95101 11.751V12.751ZM1.5 15.202C1.5 13.8509 2.59995 12.751 3.95101 12.751V11.751C2.04767 11.751 0.5 13.2986 0.5 15.202H1.5ZM4.7156 17.5301C3.13339 18.0513 1.5 16.865 1.5 15.202H0.5C0.5 17.5438 2.79726 19.2149 5.02848 18.4799L4.7156 17.5301ZM14.1563 19.4167C11.1276 20.6898 7.58482 20.0176 5.22612 17.652L4.51797 18.358C7.16573 21.0136 11.1423 21.7683 14.5438 20.3385L14.1563 19.4167ZM14.266 19.148C14.3099 19.2525 14.2608 19.3728 14.1563 19.4167L14.5438 20.3385C15.1574 20.0806 15.4457 19.3741 15.1878 18.7605L14.266 19.148ZM13.9973 19.0384C14.1019 18.9945 14.2221 19.0436 14.2659 19.148L15.1878 18.7606C14.9299 18.1469 14.2235 17.8587 13.6099 18.1165L13.9973 19.0384ZM20.1124 12.7477C20.3833 9.79722 19.2176 6.98729 17.1283 5.10232L16.4585 5.8448C18.3196 7.5239 19.358 10.0273 19.1166 12.6563L20.1124 12.7477ZM21.5001 15.2018C21.5001 13.9696 20.8508 12.8884 19.8806 12.2787L19.3485 13.1253C20.0411 13.5606 20.5001 14.3293 20.5001 15.2018H21.5001ZM18.049 18.6528C19.9524 18.6528 21.5001 17.1051 21.5001 15.2018H20.5001C20.5001 16.5529 19.4001 17.6528 18.049 17.6528V18.6528ZM14.598 15.2018C14.598 17.1051 16.1457 18.6528 18.049 18.6528V17.6528C16.698 17.6528 15.598 16.5528 15.598 15.2018H14.598ZM18.263 11.758C16.2575 11.6344 14.598 13.2342 14.598 15.2018H15.598C15.598 13.8038 16.7782 12.6684 18.2015 12.7561L18.263 11.758ZM15.5137 6.89197C16.9977 8.23075 17.832 10.1843 17.7328 12.2329L18.7317 12.2812C18.8455 9.92974 17.8878 7.68697 16.1836 6.14948L15.5137 6.89197ZM15.4262 5.18985C14.9804 5.68405 15.0196 6.44607 15.5137 6.89195L16.1836 6.14951C16.0995 6.07357 16.0928 5.94383 16.1687 5.8597L15.4262 5.18985ZM17.1283 5.10229C16.6342 4.65657 15.8721 4.69563 15.4262 5.18982L16.1687 5.85973C16.2446 5.77561 16.3743 5.76892 16.4585 5.84484L17.1283 5.10229Z" fill="#325DFB" mask="url(#path-1-outside-1)"/>
</svg>
