<svg width="20" height="20" viewBox="0 0 20 20" fill="none" xmlns="http://www.w3.org/2000/svg">
<g clip-path="url(#clip0)">
<path d="M10 2.88083C9.655 2.88083 9.375 2.60083 9.375 2.25583V0.625C9.375 0.28 9.655 0 10 0C10.345 0 10.625 0.28 10.625 0.625V2.25583C10.625 2.60083 10.345 2.88083 10 2.88083Z" fill="#325DFB"/>
<path d="M15.4759 5.14919C15.3159 5.14919 15.1559 5.08836 15.0342 4.96586C14.79 4.72169 14.79 4.32586 15.0342 4.0817L16.1875 2.92836C16.4317 2.6842 16.8275 2.6842 17.0717 2.92836C17.3159 3.17253 17.3159 3.56836 17.0717 3.81253L15.9184 4.96586C15.7959 5.08753 15.6359 5.14919 15.4759 5.14919Z" fill="#325DFB"/>
<path d="M19.375 10.625H17.7441C17.3991 10.625 17.1191 10.345 17.1191 10C17.1191 9.655 17.3991 9.375 17.7441 9.375H19.375C19.72 9.375 20 9.655 20 10C20 10.345 19.72 10.625 19.375 10.625Z" fill="#325DFB"/>
<path d="M16.6292 17.2544C16.4692 17.2544 16.3092 17.1936 16.1875 17.0711L15.0342 15.9178C14.79 15.6736 14.79 15.2778 15.0342 15.0336C15.2784 14.7894 15.6742 14.7894 15.9184 15.0336L17.0717 16.1869C17.3159 16.4311 17.3159 16.8269 17.0717 17.0711C16.9492 17.1936 16.7892 17.2544 16.6292 17.2544Z" fill="#325DFB"/>
<path d="M3.37088 17.2544C3.21088 17.2544 3.05088 17.1936 2.92922 17.0711C2.68505 16.8269 2.68505 16.4311 2.92922 16.1869L4.08255 15.0336C4.32671 14.7894 4.72255 14.7894 4.96671 15.0336C5.21088 15.2778 5.21088 15.6736 4.96671 15.9178L3.81338 17.0711C3.69088 17.1936 3.53088 17.2544 3.37088 17.2544Z" fill="#325DFB"/>
<path d="M2.25583 10.625H0.625C0.28 10.625 0 10.345 0 10C0 9.655 0.28 9.375 0.625 9.375H2.25583C2.60083 9.375 2.88083 9.655 2.88083 10C2.88083 10.345 2.60083 10.625 2.25583 10.625Z" fill="#325DFB"/>
<path d="M4.52421 5.14919C4.36421 5.14919 4.20422 5.08836 4.08255 4.96586L2.92922 3.81253C2.68505 3.56836 2.68505 3.17253 2.92922 2.92836C3.17338 2.6842 3.56922 2.6842 3.81338 2.92836L4.96671 4.0817C5.21088 4.32586 5.21088 4.72169 4.96671 4.96586C4.84338 5.08753 4.68421 5.14919 4.52421 5.14919Z" fill="#325DFB"/>
<path d="M12.5 17.5V18.5417C12.5 19.3417 11.8417 20 11.0417 20H8.95833C8.25833 20 7.5 19.4667 7.5 18.3V17.5H12.5Z" fill="#325DFB"/>
<path d="M13.6749 5.46634C12.3083 4.358 10.5083 3.92467 8.74993 4.29967C6.5416 4.758 4.74993 6.558 4.2916 8.76634C3.82493 11.033 4.67493 13.283 6.4916 14.658C6.98326 15.0247 7.32493 15.5913 7.4416 16.2497V16.258C7.45827 16.2497 7.48327 16.2497 7.49993 16.2497H12.4999C12.5166 16.2497 12.5249 16.2497 12.5416 16.258V16.2497C12.6583 15.6163 13.0333 15.033 13.6083 14.583C15.0166 13.4663 15.8333 11.7997 15.8333 9.99967C15.8333 8.233 15.0499 6.583 13.6749 5.46634ZM13.1249 10.4163C12.7833 10.4163 12.4999 10.133 12.4999 9.79134C12.4999 8.52467 11.4749 7.49967 10.2083 7.49967C9.8666 7.49967 9.58327 7.21634 9.58327 6.87467C9.58327 6.533 9.8666 6.24967 10.2083 6.24967C12.1583 6.24967 13.7499 7.84134 13.7499 9.79134C13.7499 10.133 13.4666 10.4163 13.1249 10.4163Z" fill="#325DFB"/>
<path d="M7.44141 16.25H7.49974C7.48307 16.25 7.45807 16.25 7.44141 16.2583V16.25Z" fill="#325DFB"/>
<path d="M12.5417 16.25V16.2583C12.525 16.25 12.5167 16.25 12.5 16.25H12.5417Z" fill="#325DFB"/>
</g>
<defs>
<clipPath id="clip0">
<rect width="20" height="20" fill="white"/>
</clipPath>
</defs>
</svg>
