<svg width="48" height="56" viewBox="0 0 48 56" fill="none" xmlns="http://www.w3.org/2000/svg">
<circle cx="24" cy="24" r="24" fill="#325DFB"/>
<path d="M24 56L29.1962 47H18.8038L24 56Z" fill="#325DFB"/>
<path fill-rule="evenodd" clip-rule="evenodd" d="M16.6061 24.4366C16.6061 25.7122 15.5749 26.7464 14.303 26.7464C13.0311 26.7464 12 25.7122 12 24.4366C12 23.1609 13.0311 22.1267 14.303 22.1267C15.5749 22.1267 16.6061 23.1609 16.6061 24.4366ZM21.4187 20.0956C22.0211 21.3866 22.3636 22.8651 22.3636 24.4366C22.3636 26.008 22.0211 27.4865 21.4187 28.7775C20.9922 29.6904 20.4357 30.5098 19.7777 31.2009C19.5392 31.4517 19.1667 31.4117 18.9697 31.1167L17.8733 29.4738C17.6998 29.2142 17.7238 28.8437 17.9293 28.6172C18.3068 28.2008 18.6278 27.7165 18.8777 27.1805C19.2587 26.3646 19.4752 25.4302 19.4752 24.4366C19.4752 23.4429 19.2587 22.5085 18.8777 21.6926C18.6278 21.1566 18.3068 20.6723 17.9293 20.2559C17.7238 20.0294 17.6998 19.6589 17.8733 19.3993L18.9697 17.7565C19.1667 17.4615 19.5392 17.4214 19.7777 17.6723C20.4357 18.3633 20.9922 19.1827 21.4187 20.0956ZM25.6566 17.2889C26.6558 19.3287 27.223 21.6649 27.223 24.1478C27.223 26.6308 26.6558 28.967 25.6566 31.0068L24.608 30.3783C24.0959 30.0715 23.4533 30.2395 23.1283 30.7748L21.565 32.8123C21.1403 33.2543 21.0945 33.9847 21.4517 34.4946L22.1816 35.537L23.772 37.8087C24.179 38.3906 24.9454 38.4602 25.4398 37.9676C26.8601 36.5517 28.0611 34.8716 28.9792 32.997C30.268 30.3656 31 27.3514 31 24.1478C31 20.9443 30.268 17.9301 28.9792 15.2986C28.0611 13.424 26.8601 11.744 25.4398 10.3281C24.9454 9.83541 24.179 9.90505 23.772 10.4869L22.1816 12.7587L21.4517 13.801C21.0945 14.3115 21.1403 15.0408 21.565 15.4834L23.1283 17.5214C23.4533 18.0561 24.0959 18.2242 24.608 17.9174L25.6566 17.2889Z" fill="white"/>
</svg>
