<svg width="20" height="30" viewBox="0 0 20 30" fill="none" xmlns="http://www.w3.org/2000/svg">
<path d="M4.375 5.625C4.375 4.13316 4.96763 2.70242 6.02252 1.64752C7.07742 0.592632 8.50816 0 10 0C11.4918 0 12.9226 0.592632 13.9775 1.64752C15.0324 2.70242 15.625 4.13316 15.625 5.625V15C15.625 16.4918 15.0324 17.9226 13.9775 18.9775C12.9226 20.0324 11.4918 20.625 10 20.625C8.50816 20.625 7.07742 20.0324 6.02252 18.9775C4.96763 17.9226 4.375 16.4918 4.375 15V5.625Z" fill="white"/>
<path fill-rule="evenodd" clip-rule="evenodd" d="M1.5625 12.1876C1.81114 12.1876 2.0496 12.2863 2.22541 12.4621C2.40123 12.638 2.5 12.8764 2.5 13.1251V15.0001C2.5 16.9892 3.29018 18.8968 4.6967 20.3034C6.10322 21.7099 8.01087 22.5001 10 22.5001C11.9891 22.5001 13.8968 21.7099 15.3033 20.3034C16.7098 18.8968 17.5 16.9892 17.5 15.0001V13.1251C17.5 12.8764 17.5988 12.638 17.7746 12.4621C17.9504 12.2863 18.1889 12.1876 18.4375 12.1876C18.6861 12.1876 18.9246 12.2863 19.1004 12.4621C19.2762 12.638 19.375 12.8764 19.375 13.1251V15.0001C19.375 17.3242 18.5118 19.5655 16.9527 21.2891C15.3937 23.0127 13.25 24.0958 10.9375 24.3282V28.1251H16.5625C16.8111 28.1251 17.0496 28.2238 17.2254 28.3996C17.4012 28.5755 17.5 28.8139 17.5 29.0626C17.5 29.3112 17.4012 29.5497 17.2254 29.7255C17.0496 29.9013 16.8111 30.0001 16.5625 30.0001H3.4375C3.18886 30.0001 2.9504 29.9013 2.77459 29.7255C2.59877 29.5497 2.5 29.3112 2.5 29.0626C2.5 28.8139 2.59877 28.5755 2.77459 28.3996C2.9504 28.2238 3.18886 28.1251 3.4375 28.1251H9.0625V24.3282C6.75003 24.0958 4.60633 23.0127 3.04727 21.2891C1.48822 19.5655 0.624971 17.3242 0.625 15.0001V13.1251C0.625 12.8764 0.723772 12.638 0.899588 12.4621C1.0754 12.2863 1.31386 12.1876 1.5625 12.1876Z" fill="white"/>
</svg>
