<svg width="18" height="18" viewBox="0 0 18 18" fill="none" xmlns="http://www.w3.org/2000/svg">
<g clip-path="url(#clip0)">
<path fill-rule="evenodd" clip-rule="evenodd" d="M15.5 8.00004H11C10.4478 8.00004 10 7.55229 10 7.00001V2.50001C10 2.22387 10.2239 1.99999 10.5 1.99999H11.5C11.7761 1.99999 12 2.22387 12 2.50001V4.58595L16.4395 0.146461C16.6348 -0.0488203 16.9514 -0.0488203 17.1466 0.146461L17.8536 0.85343C18.0489 1.04871 18.0489 1.36526 17.8536 1.56054L13.4141 6.00002H15.5C15.7762 6.00002 16.0001 6.2239 16.0001 6.50004V7.50002C16.0001 7.77616 15.7762 8.00004 15.5 8.00004ZM13.3457 11.3037C14.3711 11.6426 15.4531 11.8149 16.5557 11.8149C17.3526 11.8149 18 12.4629 18 13.2593V16.5556C18 17.352 17.3526 18 16.5557 18C7.42678 18 0 10.5733 0 1.44431C0 0.647953 0.647438 4.65661e-09 1.44431 4.65661e-09H4.74998C5.54686 4.65661e-09 6.19434 0.647953 6.1943 1.44441C6.1943 2.54498 6.36717 3.627 6.70702 4.65923C6.87305 5.18461 6.73631 5.74664 6.35058 6.13238L4.86619 8.10455C6.10252 10.4341 7.5488 11.8794 9.8955 13.1324L11.919 11.6045C12.2256 11.2896 12.8428 11.1333 13.3457 11.3037Z" fill="#325DFB"/>
</g>
<defs>
<clipPath id="clip0">
<rect width="18" height="18" fill="white"/>
</clipPath>
</defs>
</svg>
