<svg width="18" height="18" viewBox="0 0 18 18" fill="none" xmlns="http://www.w3.org/2000/svg">
<g clip-path="url(#clip0)">
<path d="M17 0H12.5C12.2239 0 12 0.223875 12 0.500016V1.5C12 1.77614 12.2239 2.00002 12.5 2.00002H14.5859L10.1465 6.4395C9.95118 6.63478 9.95118 6.95133 10.1465 7.14661L10.8534 7.85358C11.0487 8.04886 11.3653 8.04886 11.5605 7.85358L16 3.41409V5.50003C16 5.77617 16.2239 6.00005 16.5 6.00005H17.5C17.7762 6.00005 18 5.77617 18 5.50003V1.00003C18 0.447703 17.5523 0 17 0Z" fill="#325DFB"/>
<path d="M16.5557 11.8149C15.4531 11.8149 14.3711 11.6426 13.3457 11.3037C12.8428 11.1333 12.2256 11.2896 11.919 11.6045L9.8955 13.1324C7.5488 11.8794 6.10252 10.4341 4.86619 8.10455L6.35058 6.13238C6.73631 5.74664 6.87305 5.18461 6.70702 4.65923C6.36717 3.627 6.1943 2.54498 6.1943 1.44441C6.19434 0.647953 5.54686 0 4.74998 0H1.44431C0.647438 0 0 0.647953 0 1.44431C0 10.5733 7.42678 18 16.5557 18C17.3526 18 18 17.352 18 16.5556V13.2593C18 12.4629 17.3526 11.8149 16.5557 11.8149Z" fill="#325DFB"/>
</g>
<defs>
<clipPath id="clip0">
<rect width="18" height="18" fill="white"/>
</clipPath>
</defs>
</svg>
