<svg width="16" height="21" viewBox="0 0 16 21" fill="none" xmlns="http://www.w3.org/2000/svg">
<path fill-rule="evenodd" clip-rule="evenodd" d="M10.2844 14.6008C8.98474 13.6567 7.858 12.3844 7.03837 10.8325C6.21873 9.28067 5.80309 7.63275 5.75612 6.02706L6.62093 6.0727C7.0432 6.09489 7.39053 5.7771 7.41752 5.33498L7.7249 3.54396C7.84525 3.12707 7.63282 2.65543 7.2406 2.45496L6.43896 2.04516L4.69214 1.15186C4.24488 0.922949 3.74152 1.13313 3.59423 1.60475C3.17127 2.95993 2.97305 4.40758 3.01633 5.88318C3.07709 7.95455 3.61323 10.0808 4.67074 12.083C5.72825 14.0853 7.18211 15.7268 8.85866 16.9448C10.053 17.8124 11.3604 18.4648 12.7181 18.8795C13.1907 19.0238 13.6481 18.7265 13.7112 18.2281L13.9582 16.2817L14.0717 15.3886C14.127 14.9512 13.8576 14.5106 13.4453 14.3746L11.7925 13.6184C11.4123 13.3918 10.954 13.4995 10.7343 13.8608L10.2844 14.6008Z" fill="#56E0BA"/>
</svg>
