<svg width="1552" height="763" viewBox="0 0 1552 763" fill="none" xmlns="http://www.w3.org/2000/svg">
<g style="mix-blend-mode:luminosity">
<path d="M252.038 773.992C506.59 581.672 442.893 899.233 798.416 855.949C879.9 846.029 979.536 781.331 1066.38 696.043C1161.33 602.775 1270.98 525.961 1390.6 467.632C1568.04 381.118 1781.03 223.957 1655.25 1" stroke="#3D0C77" stroke-miterlimit="10"/>
<path d="M1659.79 16.3372C1779.44 240.978 1565.46 391.531 1385.58 472.958C1305.27 509.653 1229.35 554.238 1159.23 606.179C1123.97 632.296 1090.13 660.207 1058.02 690.113C970.296 772.143 870.879 835.578 788.078 846.871C766.889 849.762 747.126 851.373 728.626 851.849C443.827 859.225 479.161 604.294 242.377 781.166" stroke="#441077" stroke-miterlimit="10"/>
<path d="M1664.33 31.711C1777.87 258.054 1562.64 401.378 1380.59 478.338C1299.6 512.564 1223.15 554.915 1152.39 604.111C1116.59 628.984 1082.25 655.522 1049.69 684.238C961.11 762.974 861.913 825.146 777.776 837.829C756.715 841.014 736.989 842.917 718.452 843.704C438.337 855.399 467.011 615.403 232.752 788.377" stroke="#4C1478" stroke-miterlimit="10"/>
<path d="M1668.84 47.0848C1776.26 275.111 1559.95 411.554 1375.55 483.701C1293.94 515.62 1216.89 555.574 1145.5 602.006C1109.18 625.634 1074.23 650.708 1041.33 678.326C951.668 753.53 852.91 814.659 767.437 828.77C746.522 832.229 726.814 834.462 708.241 835.523C432.829 851.428 454.842 626.495 223.072 795.552" stroke="#531878" stroke-miterlimit="10"/>
<path d="M1673.38 62.4586C1774.68 292.187 1557.31 421.767 1370.56 489.064C1288.34 518.695 1210.63 556.232 1138.66 599.92C1101.81 622.285 1066.33 645.986 1032.99 672.433C942.408 744.287 843.925 804.153 757.116 819.71C736.329 823.426 716.676 825.988 698.048 827.361C427.357 847.365 442.673 637.586 213.428 802.744" stroke="#5B1D79" stroke-miterlimit="10"/>
<path d="M1677.9 77.8325C1773.07 309.245 1554.7 431.979 1365.53 494.426C1282.73 521.77 1204.33 556.873 1131.78 597.815C1094.38 618.936 1058.38 641.246 1024.62 666.521C933.131 735.008 834.922 793.63 746.778 810.632C726.119 814.622 706.503 817.496 687.838 819.18C421.905 843.174 430.505 648.658 203.767 809.9" stroke="#622179" stroke-miterlimit="10"/>
<path d="M1682.44 93.2063C1771.5 326.321 1552.1 442.228 1360.51 499.789C1277.13 524.844 1198.02 557.495 1124.92 595.729C1086.97 615.586 1050.46 636.524 1016.28 660.628C923.89 725.765 825.956 783.088 736.457 801.591C715.926 805.837 696.365 809.022 677.646 811.035C416.47 838.928 418.336 659.786 194.105 817.111" stroke="#6A257A" stroke-miterlimit="10"/>
<path d="M1686.96 108.58C1769.89 343.378 1549.5 452.496 1355.5 505.169C1271.55 527.956 1191.71 558.118 1118.06 593.642C1079.54 612.219 1042.56 631.784 1007.92 654.735C914.631 716.523 816.953 772.527 726.119 792.532C705.716 797.034 686.21 800.548 667.454 802.854C411.054 834.517 406.186 670.859 184.462 824.286" stroke="#71297A" stroke-miterlimit="10"/>
<path d="M1691.5 123.936C1768.32 360.436 1546.94 462.763 1350.49 510.514C1265.96 531.049 1185.38 558.703 1111.19 591.537C1072.09 608.851 1034.63 627.044 999.573 648.823C905.408 707.28 807.968 761.93 715.798 783.454C695.523 788.194 676.053 792.037 657.261 794.673C405.637 830.014 394.017 681.95 174.8 831.46" stroke="#792D7A" stroke-miterlimit="10"/>
<path d="M1696.02 139.309C1766.71 377.494 1544.38 473.086 1345.45 515.876C1260.37 534.178 1179.01 559.289 1104.33 589.433C1064.66 605.465 1026.73 622.322 991.229 642.911C896.186 698.038 798.984 751.297 705.478 774.394C685.332 779.372 665.917 783.545 647.069 786.51C400.221 825.421 381.849 693.041 165.157 838.653" stroke="#80317B" stroke-miterlimit="10"/>
<path d="M1700.56 154.683C1765.13 394.551 1541.85 483.445 1340.46 521.239C1254.82 537.308 1172.66 559.838 1097.49 587.346C1057.21 602.079 1018.84 617.6 982.885 637.018C886.982 688.813 790 740.663 695.158 765.335C675.14 770.532 655.78 775.035 636.877 778.347C394.823 820.717 369.699 704.151 155.514 845.846" stroke="#88367B" stroke-miterlimit="10"/>
<path d="M1705.08 170.057C1763.52 411.627 1539.31 493.822 1335.43 526.601C1249.22 540.456 1166.26 560.387 1090.61 585.241C1049.75 598.675 1010.92 612.859 974.523 631.107C877.76 679.589 780.997 729.993 684.819 756.257C664.929 761.692 645.624 766.506 626.666 770.148C389.388 815.885 357.512 715.205 145.834 853.002" stroke="#8F3A7C" stroke-miterlimit="10"/>
<path d="M1709.59 185.431C1761.93 428.685 1536.76 504.236 1330.41 531.982C1243.66 543.641 1159.87 560.918 1083.75 583.173C1042.28 595.289 1003.01 608.174 966.177 625.232C868.573 670.401 771.993 719.341 674.498 747.234C654.735 752.889 635.467 758.014 616.473 762.022C383.952 811.017 345.361 726.351 136.189 860.213" stroke="#973E7C" stroke-miterlimit="10"/>
<path d="M1714.13 200.805C1760.36 445.761 1534.26 514.668 1325.4 537.345C1238.1 546.825 1153.48 561.43 1076.89 581.069C1034.82 591.867 995.127 603.452 957.816 619.32C859.37 661.195 762.973 708.616 664.16 738.156C644.526 744.031 625.312 749.485 606.263 753.841C378.501 806.002 333.175 737.424 126.529 867.388" stroke="#9E427C" stroke-miterlimit="10"/>
<path d="M1718.65 216.178C1758.75 462.818 1531.73 525.155 1320.37 542.707C1232.51 550.01 1147.06 561.906 1070 578.982C1027.33 588.444 987.203 598.748 949.453 613.427C850.165 652.026 753.933 697.891 653.821 729.096C634.296 735.173 615.156 740.938 596.052 745.678C373.011 800.914 321.006 748.533 116.849 874.58" stroke="#A5467D" stroke-miterlimit="10"/>
<path d="M1723.19 231.552C1757.17 479.894 1529.23 535.643 1315.37 548.07C1226.99 553.194 1140.69 562.364 1063.16 576.877C1019.88 584.985 979.335 594.026 941.128 607.515C840.998 642.838 744.93 687.129 643.519 720.037C624.123 726.333 605.019 732.409 585.878 737.515C367.558 795.716 308.856 759.624 107.224 881.773" stroke="#AD4A7D" stroke-miterlimit="10"/>
<path d="M1727.71 246.908C1755.56 496.933 1526.68 546.166 1310.34 553.414C1221.41 556.397 1134.27 562.785 1056.28 574.773C1012.4 581.526 971.411 589.323 932.746 601.604C831.793 633.669 735.872 676.35 633.162 710.959C613.875 717.456 594.845 723.844 575.649 729.316C362.013 790.427 296.687 770.715 97.5435 888.947" stroke="#B44E7E" stroke-miterlimit="10"/>
<path d="M1732.25 262.282C1753.99 514.009 1524.18 556.727 1305.33 558.776C1215.83 559.618 1127.87 563.206 1049.42 572.686C1004.92 578.067 963.526 584.637 924.403 595.71C822.608 624.518 726.833 665.551 622.842 701.899C603.684 708.598 584.69 715.278 565.458 721.153C356.451 785.046 284.501 781.788 87.8828 896.122" stroke="#BC537E" stroke-miterlimit="10"/>
<path d="M1736.77 277.655C1752.38 531.067 1521.63 567.324 1300.31 564.157C1210.26 562.876 1121.48 563.627 1042.56 570.6C997.45 574.59 955.638 579.952 916.058 589.817C813.439 615.385 717.774 654.735 612.521 692.858C593.472 699.758 574.533 706.731 555.283 713.009C350.887 779.629 272.368 792.898 78.2563 903.315" stroke="#C3577F" stroke-miterlimit="10"/>
<path d="M1741.31 293.029C1750.8 548.143 1519.09 577.939 1295.3 569.52C1204.7 566.116 1115.07 563.993 1035.69 568.513C989.984 571.112 947.733 575.267 907.695 583.924C804.253 606.271 708.698 643.9 602.182 683.798C583.243 690.881 564.359 698.147 545.072 704.846C345.251 774.083 260.181 803.989 68.5762 910.489" stroke="#CB5B7F" stroke-miterlimit="10"/>
<path d="M1745.83 308.403C1749.19 565.201 1516.53 588.572 1290.28 574.882C1199.12 569.373 1108.71 564.359 1028.83 566.409C982.519 567.598 939.847 570.581 899.352 578.012C795.068 597.138 699.623 633.028 591.862 674.721C573.033 682.005 554.185 689.545 534.88 696.647C339.579 768.464 248.013 815.062 58.9336 917.664" stroke="#D25F7F" stroke-miterlimit="10"/>
<path d="M1750.37 323.777C1747.62 582.258 1513.98 599.243 1285.27 580.245C1193.54 572.631 1102.32 564.706 1021.97 564.322C975.072 564.102 931.942 565.914 891.008 572.119C785.882 588.042 690.547 622.157 581.542 665.679C562.822 673.147 544.012 680.98 524.688 688.502C333.87 762.827 235.863 826.189 49.2905 924.875" stroke="#DA6380" stroke-miterlimit="10"/>
<path d="M1754.88 339.151C1746.01 599.334 1511.39 609.931 1280.24 585.607C1187.94 575.907 1095.93 565.036 1015.09 562.217C967.606 560.57 924.037 561.229 882.627 566.207C776.678 578.945 681.397 611.23 571.185 656.602C552.575 664.252 533.801 672.36 514.459 680.321C328.069 757.08 223.676 837.28 39.6104 932.049" stroke="#E16780" stroke-miterlimit="10"/>
<path d="M1759.42 354.506C1744.44 616.373 1508.81 620.619 1275.24 590.97C1182.38 579.183 1089.6 565.347 1008.27 560.131C960.195 557.038 916.168 556.562 874.319 560.314C767.529 569.868 672.321 600.304 560.901 647.56C542.401 655.412 523.663 663.758 504.303 672.177C322.269 751.315 211.544 848.39 29.9854 939.26" stroke="#E96C81" stroke-miterlimit="10"/>
<path d="M1763.94 369.88C1742.83 633.449 1506.21 631.363 1270.21 596.333C1176.76 582.459 1083.23 565.658 1001.38 558.026C952.728 553.487 908.245 551.895 865.956 554.402C758.306 560.79 663.19 589.341 550.562 638.482C532.172 646.517 513.452 655.119 494.092 663.977C316.358 745.44 199.357 859.444 20.3232 946.398" stroke="#F07081" stroke-miterlimit="10"/>
<path d="M1768.46 385.254C1741.23 650.507 1503.52 642.417 1265.2 601.695C1171.12 585.882 1076.9 565.951 994.522 555.94C945.299 549.955 900.358 547.283 857.594 548.509C749.101 551.858 654.022 578.378 540.223 629.423C521.924 637.622 503.223 646.48 483.882 655.815C310.374 739.565 187.188 870.554 10.6431 953.609" stroke="#F87482" stroke-miterlimit="10"/>
<path d="M1773 400.628C1726.54 772.509 1281.57 597.797 987.661 553.853C791.884 524.588 663.391 551.327 473.69 647.652C304.336 733.635 175.02 881.645 1 960.783" stroke="#FF7882" stroke-miterlimit="10"/>
</g>
</svg>
